<?xml version="1.0" encoding="UTF-8"?>
<svg version="1.1" xmlns="http://www.w3.org/2000/svg" width="1020" height="1020">
<path d="M0 0 C336.6 0 673.2 0 1020 0 C1020 336.6 1020 673.2 1020 1020 C683.4 1020 346.8 1020 0 1020 C0 683.4 0 346.8 0 0 Z " fill="#F5EEDE" transform="translate(0,0)"/>
<path d="M0 0 C32.34107582 -0.02278968 64.68214936 -0.04049782 97.02323132 -0.05106533 C100.83734629 -0.05231611 104.65146123 -0.05361042 108.46557617 -0.05493164 C109.22493001 -0.05519395 109.98428386 -0.05545626 110.76664842 -0.05572652 C123.07824169 -0.06008337 135.38983032 -0.06797099 147.70142084 -0.0771528 C160.3247939 -0.08648893 172.94816452 -0.09205552 185.57154089 -0.09408849 C193.36714149 -0.09546381 201.16272896 -0.09981484 208.95832551 -0.10791647 C214.92586162 -0.11380411 220.89338632 -0.11445907 226.86092567 -0.11310768 C229.31643124 -0.11338421 231.77193727 -0.11539195 234.22743988 -0.11920547 C237.56395311 -0.12413578 240.90040883 -0.12300075 244.23692322 -0.12025452 C245.71500526 -0.12462378 245.71500526 -0.12462378 247.22294754 -0.12908131 C248.55310783 -0.12609474 248.55310783 -0.12609474 249.91014004 -0.12304783 C250.68135203 -0.12342755 251.45256402 -0.12380727 252.24714607 -0.1241985 C254 0 254 0 255 1 C255.0973362 2.37517075 255.12555411 3.75530756 255.12584114 5.13391876 C255.12975276 6.47882928 255.12975276 6.47882928 255.13374341 7.85090971 C255.13039732 9.34547784 255.13039732 9.34547784 255.12698364 10.87023926 C255.12854363 11.91986107 255.13010362 12.96948289 255.13171089 14.05091143 C255.13572584 17.59710593 255.13252933 21.14325824 255.12939453 24.68945312 C255.13074835 27.21996587 255.13252818 29.75047843 255.13470459 32.2809906 C255.13880507 38.45815285 255.13818557 44.63529926 255.13529195 50.81246173 C255.13303814 55.830547 255.1327253 60.84862885 255.13381577 65.86671448 C255.133969 66.5795581 255.13412223 67.29240173 255.13428011 68.02684668 C255.13459982 69.47474841 255.13492403 70.92265015 255.1352527 72.37055188 C255.13810766 85.96347051 255.13482022 99.5563824 255.12945233 113.14929992 C255.12498428 124.82528535 255.12576021 136.50126084 255.13037109 148.17724609 C255.13571658 161.71986985 255.13783296 175.2624877 255.13475883 188.80511236 C255.13444026 190.24783675 255.13412589 191.69056113 255.13381577 193.13328552 C255.13366149 193.84322616 255.13350721 194.5531668 255.13334826 195.28462079 C255.13248303 200.29957631 255.13394612 205.31452809 255.13629532 210.32948303 C255.13938465 217.07300114 255.13720095 223.81649749 255.13140106 230.56001472 C255.1300727 233.04293346 255.13046885 235.52585377 255.13266373 238.0087719 C255.13537227 241.38245668 255.13199774 244.75607994 255.12698364 248.12976074 C255.12921436 249.12613949 255.13144509 250.12251824 255.13374341 251.14909029 C255.13113566 252.0456973 255.12852791 252.94230432 255.12584114 253.86608124 C255.12567879 254.64586444 255.12551644 255.42564765 255.12534916 256.22906065 C255 258 255 258 254 259 C252.64665857 259.09815577 251.28823976 259.1273884 249.93134403 259.12863445 C249.0492873 259.1318589 248.16723057 259.13508335 247.25844485 259.1384055 C246.27831201 259.1368569 245.29817917 259.1353083 244.28834534 259.13371277 C242.73947228 259.1371111 242.73947228 259.1371111 241.15930885 259.14057809 C237.6707293 259.14694995 234.18218827 259.1460867 230.69360352 259.14526367 C228.20412139 259.14825317 225.71463973 259.15165521 223.22515869 259.15544128 C217.14792665 259.16338422 211.07070999 259.16649685 204.99347419 259.16705366 C200.05596541 259.16752806 195.11845984 259.16957897 190.18095207 259.17275429 C176.19659523 259.18156524 162.21224608 259.18617297 148.22788645 259.18542381 C147.0959579 259.18536388 147.0959579 259.18536388 145.94116211 259.18530273 C145.18562669 259.18526185 144.43009128 259.18522097 143.65166085 259.18517885 C131.40222799 259.18477225 119.15282584 259.19434421 106.90340186 259.2084411 C94.33988048 259.22278592 81.7763741 259.22971233 69.21284431 259.22884732 C62.15370413 259.2285147 55.09459616 259.23129036 48.03546333 259.24202538 C41.39945488 259.25205188 34.76350303 259.25181446 28.12748718 259.24450874 C25.68530109 259.24345768 23.24311085 259.24585638 20.80093193 259.2518692 C17.48008554 259.2595188 14.15947906 259.25499134 10.83863831 259.24723816 C9.86073619 259.25238172 8.88283407 259.25752529 7.87529856 259.26282471 C6.99063408 259.25822592 6.1059696 259.25362712 5.19449711 259.24888897 C4.42724467 259.24910634 3.65999224 259.24932371 2.86948973 259.24954766 C1 259 1 259 -1 257 C-1.24954766 255.11883688 -1.24954766 255.11883688 -1.24888897 252.77706146 C-1.25348777 251.88604689 -1.25808656 250.99503232 -1.26282471 250.07701731 C-1.25768115 249.09201541 -1.25253759 248.10701352 -1.24723816 247.09216309 C-1.24965257 246.05055952 -1.25206699 245.00895595 -1.25455457 243.93578863 C-1.26021984 240.4226247 -1.25150712 236.90964032 -1.24291992 233.39648438 C-1.2439921 230.88715058 -1.24592983 228.37781702 -1.24867249 225.8684845 C-1.25302859 219.74658372 -1.24806391 213.62475033 -1.23882218 207.50285685 C-1.22845369 200.37931038 -1.22850796 193.25577567 -1.22899476 186.13222307 C-1.22949575 173.42521413 -1.22032414 160.71823033 -1.20581055 148.01123047 C-1.19172241 135.6704055 -1.18463975 123.32960266 -1.18530273 110.98876953 C-1.18534269 110.22874191 -1.18538265 109.46871429 -1.18542381 108.68565553 C-1.18546417 107.9269647 -1.18550452 107.16827386 -1.1855461 106.38659239 C-1.1862354 92.3527329 -1.180349 78.31888284 -1.17139288 64.2850264 C-1.16837234 59.31511394 -1.16731283 54.3452032 -1.16686058 49.37528992 C-1.16610847 42.69084776 -1.15977823 36.00643223 -1.14969444 29.32199669 C-1.14676331 26.86207408 -1.14554531 24.40214879 -1.14612198 21.9422245 C-1.14660954 18.59740339 -1.14098795 15.2526488 -1.13371277 11.90783691 C-1.13526137 10.92283502 -1.13680997 9.93783313 -1.1384055 8.92298269 C-1.13518106 8.03196812 -1.13195661 7.14095355 -1.12863445 6.22293854 C-1.12793003 5.45015265 -1.1272256 4.67736676 -1.12649983 3.88116312 C-1 2 -1 2 0 0 Z " fill="#1C4040" transform="translate(78,362)"/>
<path d="M0 0 C0.9071022 -0.00570007 1.81420441 -0.01140015 2.74879456 -0.01727295 C4.67813953 -0.02674517 6.60750084 -0.0332657 8.53686523 -0.03710938 C11.46042233 -0.04673188 14.38325126 -0.07769856 17.30664062 -0.109375 C19.18358959 -0.11591332 21.06054358 -0.12116052 22.9375 -0.125 C24.23342323 -0.1435202 24.23342323 -0.1435202 25.55552673 -0.16241455 C34.90109776 -0.12890115 42.69777021 1.88617333 49.50390625 8.4453125 C52.40206925 11.70574588 52.94925218 14.18778971 53.44140625 18.453125 C52.69387224 25.92846515 49.66137837 31.21301473 44.06640625 36.203125 C43.57140625 37.193125 43.57140625 37.193125 43.06640625 38.203125 C43.6696875 38.57824219 44.27296875 38.95335937 44.89453125 39.33984375 C51.02003647 43.26214306 56.02719326 46.89594513 58.06640625 54.203125 C58.71841854 60.72324789 57.57798533 65.62591116 54.06640625 71.203125 C48.71836141 77.29248299 42.04299358 80.1927725 34.06640625 81.203125 C30.73481585 81.33192671 27.40786722 81.31969706 24.07421875 81.30078125 C23.1282785 81.2993663 22.18233826 81.29795135 21.20773315 81.29649353 C18.20225796 81.29091984 15.19685872 81.2783722 12.19140625 81.265625 C10.1471365 81.2606066 8.10286557 81.25604429 6.05859375 81.25195312 C1.06116889 81.24095903 -3.93619958 81.22371257 -8.93359375 81.203125 C-9.59359375 79.883125 -10.25359375 78.563125 -10.93359375 77.203125 C-10.27359375 76.213125 -9.61359375 75.223125 -8.93359375 74.203125 C-8.27359375 74.203125 -7.61359375 74.203125 -6.93359375 74.203125 C-4.28305722 66.85917848 -3.47768588 60.27786776 -3.5 52.5 C-3.49213722 50.87786591 -3.49213722 50.87786591 -3.4841156 49.22296143 C-3.47773264 46.95398818 -3.47898364 44.68498168 -3.48754883 42.41601562 C-3.49610486 38.94862381 -3.46716967 35.48285652 -3.43554688 32.015625 C-3.43393572 29.80208382 -3.43451074 27.58853974 -3.4375 25.375 C-3.42626602 24.34364929 -3.41503204 23.31229858 -3.40345764 22.24969482 C-3.4616565 16.24237341 -3.95654724 12.79335197 -7.93359375 8.203125 C-8.53171875 7.666875 -9.12984375 7.130625 -9.74609375 6.578125 C-10.13796875 6.124375 -10.52984375 5.670625 -10.93359375 5.203125 C-10.15197613 -1.44062479 -5.56569881 0.026813 0 0 Z " fill="#1C3D3D" transform="translate(546.93359375,372.796875)"/>
<path d="M0 0 C0.96678077 25.16972594 1.11281421 50.33829706 1.12338257 75.52325058 C1.12499296 78.05144391 1.12854975 80.57962805 1.13256836 83.1078186 C1.13849813 87.16908693 1.13859582 91.23031777 1.13431931 95.29158783 C1.13333343 96.8004123 1.13388464 98.30923875 1.13615799 99.81806183 C1.14782651 109.25968446 0.81025777 118.5914808 0 128 C-1.56234375 128.32871094 -1.56234375 128.32871094 -3.15625 128.6640625 C-20.38106854 132.41431721 -34.35108813 138.15139662 -49 148 C-50.485 148.99 -50.485 148.99 -52 150 C-51.83299996 143.48699833 -48.0882077 139.67678235 -44 135 C-43.39929688 134.30390625 -42.79859375 133.6078125 -42.1796875 132.890625 C-35.52674258 125.70878487 -26.7309323 119.82454981 -17 118 C-15.68 118 -14.36 118 -13 118 C-13 85 -13 52 -13 18 C-26.73909167 22.9231223 -26.73909167 22.9231223 -39 30 C-39.62003906 30.43699219 -40.24007812 30.87398438 -40.87890625 31.32421875 C-56.55713983 43.56516622 -62.26519385 63.63389465 -67 82 C-67.33 82 -67.66 82 -68 82 C-68.17582619 77.55681433 -68.30133177 73.11558021 -68.38452148 68.66992188 C-68.41927016 67.16467951 -68.46668932 65.65966491 -68.52807617 64.15527344 C-69.08605079 50.10744186 -65.97797731 40.52864545 -56.625 29.625 C-55.10651241 28.06049763 -53.56536011 26.51760336 -52 25 C-51.30132812 24.30390625 -50.60265625 23.6078125 -49.8828125 22.890625 C-37.74808781 11.42264342 -17.2359087 0 0 0 Z " fill="#F1EDE0" transform="translate(286,407)"/>
<path d="M0 0 C1.34760896 0.3180897 2.69513159 0.63654515 4.0426178 0.95515442 C4.79302873 1.13245496 5.54343966 1.3097555 6.31659031 1.49242878 C26.57367619 6.3403079 47.95342809 16.34545237 59.3671875 34.64453125 C63.5690091 41.75249873 66.15723944 47.32365902 66.09765625 55.73046875 C66.0962413 56.48088943 66.09482635 57.23131012 66.09336853 58.00447083 C66.0877756 60.3988546 66.07522444 62.79314453 66.0625 65.1875 C66.05748408 66.81184761 66.05292134 68.43619668 66.04882812 70.06054688 C66.03780848 74.04040069 66.02054873 78.02018444 66 82 C65.34 81.67 64.68 81.34 64 81 C63.796875 79.0234375 63.796875 79.0234375 63.75 76.375 C62.55407692 60.21954785 52.16661708 42.69379657 40.65234375 31.7734375 C31.70780936 24.20389492 21.96964899 20.98896327 11 17 C11 50.33 11 83.66 11 118 C13.64 118.33 16.28 118.66 19 119 C25.63346395 121.07628486 31.42798221 124.93089343 37 129 C37.63035156 129.45117188 38.26070312 129.90234375 38.91015625 130.3671875 C45.20111966 135.26169529 49.78302876 142.06138531 51 150 C47.96325743 148.61030425 45.28642143 146.86466535 42.53588867 144.97949219 C36.82523756 141.11252628 31.06520779 137.88480592 24.6875 135.25 C24.07430908 134.99323486 23.46111816 134.73646973 22.8293457 134.47192383 C17.71719287 132.44877826 12.46798405 130.92929768 7.19458008 129.39355469 C6.40580727 129.16276215 5.61703445 128.9319696 4.80435944 128.69418335 C2.86989916 128.12833919 0.93499381 127.56401699 -1 127 C-1.02333588 113.68965975 -1.04102207 100.37932449 -1.05181217 87.06896782 C-1.05699506 80.88614038 -1.06400752 74.7033271 -1.07543945 68.52050781 C-1.08643378 62.53580718 -1.09231127 56.55112003 -1.09487724 50.56641006 C-1.09670207 48.30148227 -1.10026413 46.03655508 -1.10573006 43.77163315 C-1.13956053 29.15020019 -0.80002644 14.60026998 0 0 Z " fill="#EFEBDF" transform="translate(125,407)"/>
<path d="M0 0 C3.65462604 0.0463344 4.52400697 0.20424971 7.5625 2.5 C11.99412408 8.32442022 14.93081376 13.83895304 17.46484375 20.65625 C17.97127159 21.99206116 17.97127159 21.99206116 18.4879303 23.3548584 C19.56151699 26.19229761 20.62450323 29.03357897 21.6875 31.875 C22.39712419 33.75285456 23.10740492 35.63046117 23.81835938 37.5078125 C29.36788368 52.20280953 29.36788368 52.20280953 31.22705078 57.6640625 C31.64841309 58.89898437 32.06977539 60.13390625 32.50390625 61.40625 C32.84881104 62.45361328 33.19371582 63.50097656 33.54907227 64.58007812 C35.2529345 68.54548061 37.39916527 71.47444351 41 73.875 C42.75 75.375 42.75 75.375 43 78.0625 C42.9175 78.825625 42.835 79.58875 42.75 80.375 C39.19523889 81.18524093 35.90875557 81.50339888 32.265625 81.5078125 C31.24855469 81.50910156 30.23148437 81.51039063 29.18359375 81.51171875 C28.13300781 81.50785156 27.08242188 81.50398438 26 81.5 C24.93394531 81.50386719 23.86789062 81.50773437 22.76953125 81.51171875 C21.75761719 81.51042969 20.74570312 81.50914062 19.703125 81.5078125 C18.77661133 81.50668457 17.85009766 81.50555664 16.89550781 81.50439453 C14.75 81.375 14.75 81.375 13.75 80.375 C13.51470588 74.84558824 13.51470588 74.84558824 14.75 72.375 C15.15385716 66.4181069 14.55329107 62.65812548 11.75 57.375 C7.99737357 55.49868679 3.50497651 56.10379977 -0.625 56.0625 C-1.5840625 56.03349609 -2.543125 56.00449219 -3.53125 55.97460938 C-9.06113033 55.82441757 -9.06113033 55.82441757 -13.8359375 58.27734375 C-16.70478996 62.5330724 -17.67910475 65.1184668 -17.25 70.375 C-16.92 71.2 -16.59 72.025 -16.25 72.875 C-15.06061263 75.84846842 -15.1801912 78.19869967 -15.25 81.375 C-18.68742918 81.43302698 -22.12473253 81.46860486 -25.5625 81.5 C-26.53896484 81.51675781 -27.51542969 81.53351563 -28.52148438 81.55078125 C-29.45927734 81.55722656 -30.39707031 81.56367188 -31.36328125 81.5703125 C-32.22735596 81.58078613 -33.09143066 81.59125977 -33.98168945 81.60205078 C-36.25 81.375 -36.25 81.375 -39.25 79.375 C-39.125 77.6875 -39.125 77.6875 -38.25 75.375 C-37.3425 74.67375 -36.435 73.9725 -35.5 73.25 C-27.96788457 67.31269757 -25.33047031 55.66624272 -22.1875 47 C-21.76662109 45.85789062 -21.34574219 44.71578125 -20.91210938 43.5390625 C-16.92828846 32.6684814 -13.2616895 21.81325832 -10.375 10.6015625 C-8.35634625 4.8119514 -6.30365059 0.2713492 0 0 Z " fill="#1B3E3E" transform="translate(393.25,372.625)"/>
<path d="M0 0 C0.75176514 -0.01844971 1.50353027 -0.03689941 2.27807617 -0.0559082 C9.00848644 0.01852204 14.28640585 2.11576854 19.25 6.6875 C24.39029032 15.58415632 23.1809969 26.72439223 23.08984375 36.63476562 C22.8773024 42.82151529 22.8773024 42.82151529 25.25976562 48.24365234 C27.04986631 49.52851721 27.04986631 49.52851721 29.875 50.5 C29.6875 52.875 29.6875 52.875 28.875 55.5 C25.01839724 57.56578539 21.57756837 57.79757735 17.25 57.8125 C16.12335937 57.82925781 14.99671875 57.84601563 13.8359375 57.86328125 C10.56452931 57.46190795 9.91987482 56.93191737 7.875 54.5 C4.65538054 54.68397825 2.3279678 55.7442108 -0.625 57.0625 C-6.74811453 59.39788144 -14.29829096 60.06547188 -20.4453125 57.55078125 C-23.02444313 55.84035362 -24.86787221 53.89128142 -26.5625 51.3125 C-27.71213523 45.56432384 -28.45914858 39.84316691 -25.1875 34.6875 C-18.915356 27.30339695 -10.53174564 25.68212075 -1.3828125 24.17578125 C2.00200477 23.68554237 2.00200477 23.68554237 4.875 21.5 C5.35222472 19.40157631 5.35222472 19.40157631 5.25 17.0625 C5.25773438 16.28003906 5.26546875 15.49757813 5.2734375 14.69140625 C4.78358852 11.99723685 4.04864735 11.12643543 1.875 9.5 C-1.41013122 8.66352514 -1.41013122 8.66352514 -5.125 9.5 C-8.077343 11.56087176 -10.60453925 13.936507 -13.125 16.5 C-15.01628342 18.39128342 -17.69567726 17.7366852 -20.21484375 17.828125 C-20.84519531 17.71984375 -21.47554687 17.6115625 -22.125 17.5 C-24.30538095 14.22942857 -24.75746755 13.29480531 -24.125 9.5 C-18.22353417 1.43466337 -9.34938528 0.13491591 0 0 Z " fill="#1D3E3E" transform="translate(640.125,396.5)"/>
<path d="M0 0 C0.82000488 -0.00999023 1.64000977 -0.01998047 2.48486328 -0.03027344 C9.00575618 0.06252235 13.23618781 1.45556563 18.0625 6.0625 C24.2435284 14.17763575 22.68469978 26.41682322 22.79101562 36.015625 C22.81744141 37.18351562 22.84386719 38.35140625 22.87109375 39.5546875 C22.88454834 40.61284668 22.89800293 41.67100586 22.91186523 42.76123047 C23.36831386 45.8103407 23.89796305 46.60857438 26.3125 48.4375 C27.3025 49.0975 28.2925 49.7575 29.3125 50.4375 C29.125 52.8125 29.125 52.8125 28.3125 55.4375 C24.58387012 57.4126661 21.36490821 57.70843939 17.1875 57.6875 C15.63675781 57.69523437 15.63675781 57.69523437 14.0546875 57.703125 C11.3125 57.4375 11.3125 57.4375 8.3125 55.4375 C8.3125 54.7775 8.3125 54.1175 8.3125 53.4375 C7.45269531 53.7984375 6.59289062 54.159375 5.70703125 54.53125 C-2.49656991 57.75185678 -9.74013384 59.77835179 -18.6875 58.4375 C-22.62761252 56.67124266 -24.12138357 55.24893356 -26.5625 51.75 C-28.31030541 46.60368406 -28.64417509 41.85732523 -26.625 36.75 C-19.25719061 27.95616299 -10.83904846 25.94101286 0.0625 23.25 C3.14636075 22.77513784 3.14636075 22.77513784 4.3125 21.4375 C4.4370486 19.79519636 4.48818524 18.14697724 4.5 16.5 C4.51417969 15.60410156 4.52835938 14.70820313 4.54296875 13.78515625 C4.54444769 11.24635466 4.54444769 11.24635466 2.3125 9.4375 C-0.69129401 9.09280233 -2.7845322 8.87708151 -5.6875 9.4375 C-8.4375 11.6875 -8.4375 11.6875 -10.6875 14.4375 C-14.69551221 17.49624616 -17.67007736 18.00551011 -22.6875 17.4375 C-24.6875 14.4375 -24.6875 14.4375 -24.625 11.5 C-23.41172444 7.53663315 -22.19249173 6.62811983 -18.6875 4.4375 C-18.13835938 4.06367188 -17.58921875 3.68984375 -17.0234375 3.3046875 C-11.55217048 0.18759115 -6.14899809 0.04451551 0 0 Z " fill="#1D3E3D" transform="translate(771.6875,396.5625)"/>
<path d="M0 0 C0.80324707 -0.01836914 1.60649414 -0.03673828 2.43408203 -0.05566406 C8.97602565 0.01137779 14.59718509 1.65968509 19.3125 6.375 C22.00661378 11.46388158 22.66657369 15.93712722 22.60546875 21.65625 C22.61114377 23.0221424 22.61835181 24.38802914 22.62695312 25.75390625 C22.63112922 27.88076773 22.62491201 30.00569279 22.59204102 32.13232422 C22.19446886 40.37651293 22.19446886 40.37651293 25.04931641 47.8046875 C26.78360445 49.29309185 28.40625462 50.46243128 30.4375 51.5 C28.65185547 55.34619141 28.65185547 55.34619141 26.72265625 56.73046875 C23.70667154 57.74610805 21.05385512 57.80165067 17.875 57.8125 C16.73933594 57.82925781 15.60367188 57.84601563 14.43359375 57.86328125 C11.11391259 57.4607645 10.53282383 56.93057564 8.4375 54.5 C4.91650718 54.66004513 2.56598553 55.43308045 -0.5625 57.0625 C-6.0778846 59.57286564 -12.6637012 59.21120269 -18.5625 58.5 C-23.11449243 56.38680295 -24.82951878 54.13816231 -26.83203125 49.68359375 C-28.07514624 45.96754414 -28.06893905 43.42490265 -27.5625 39.5 C-24.58018739 33.6500791 -20.67060464 29.72191976 -14.6015625 27.3359375 C-8.25820206 25.28062957 -2.21049761 23.9507117 4.4375 23.5 C4.68778811 21.91986783 4.91190946 20.33557694 5.125 18.75 C5.25261719 17.86828125 5.38023437 16.9865625 5.51171875 16.078125 C5.41948949 12.87437168 4.71117985 11.7230411 2.4375 9.5 C-0.88183232 8.89145574 -2.43124099 8.61682438 -5.5625 9.5 C-7.68508655 11.12704105 -9.36498683 12.85402554 -11.1171875 14.87109375 C-12.81920543 16.78931396 -13.88647367 17.42676381 -16.4375 17.703125 C-17.489375 17.72632813 -17.489375 17.72632813 -18.5625 17.75 C-19.26375 17.77578125 -19.965 17.8015625 -20.6875 17.828125 C-21.30625 17.71984375 -21.925 17.6115625 -22.5625 17.5 C-24.5625 14.5 -24.5625 14.5 -24.5 11.5625 C-23.28672444 7.59913315 -22.06749173 6.69061983 -18.5625 4.5 C-18.01335938 4.12617188 -17.46421875 3.75234375 -16.8984375 3.3671875 C-11.48010871 0.28025117 -6.09327572 0.07744198 0 0 Z " fill="#1C3E3E" transform="translate(836.5625,396.5)"/>
<path d="M0 0 C1.4375 1.625 1.4375 1.625 1.4375 3.625 C3.06292193 2.98022931 4.68782424 2.33414857 6.3125 1.6875 C7.21742188 1.32785156 8.12234375 0.96820313 9.0546875 0.59765625 C11.39887667 -0.32401262 11.39887667 -0.32401262 13.4375 -1.375 C15.84999692 -1.55103147 18.26900895 -1.64244968 20.6875 -1.6875 C21.99203125 -1.72488281 23.2965625 -1.76226562 24.640625 -1.80078125 C29.06365435 -1.3047831 31.06362892 -0.23693977 34.4375 2.625 C39.673331 9.5381102 39.43318106 19.11679534 39.5703125 27.48046875 C39.59206543 28.50350098 39.61381836 29.5265332 39.63623047 30.58056641 C39.66997602 32.62554682 39.67750963 34.67115525 39.65673828 36.71630859 C39.57021777 41.87071143 39.57021777 41.87071143 41.82226562 46.27685547 C43.32732711 47.43748602 44.88027581 48.53535503 46.4375 49.625 C46.4375 50.945 46.4375 52.265 46.4375 53.625 C40.93308596 55.45980468 35.81987569 55.84415692 30.0625 55.875 C28.99128906 55.88853516 28.99128906 55.88853516 27.8984375 55.90234375 C22.6849958 55.8724958 22.6849958 55.8724958 20.4375 53.625 C20.42578125 51.53125 20.42578125 51.53125 20.75 49.125 C20.84925781 48.3309375 20.94851563 47.536875 21.05078125 46.71875 C21.4375 44.625 21.4375 44.625 22.4375 42.625 C22.68268011 38.40089697 22.62271206 34.16790965 22.625 29.9375 C22.64336914 28.17889648 22.64336914 28.17889648 22.66210938 26.38476562 C22.67222494 20.41320828 22.52021792 15.24751517 20.4375 9.625 C18.54455765 9.46197147 16.64751605 9.34613471 14.75 9.25 C13.69425781 9.18039062 12.63851562 9.11078125 11.55078125 9.0390625 C8.1074733 9.68711293 6.44312832 10.67847427 4.35961914 13.52539062 C2.34434572 18.11404603 2.85454172 23.14829177 3 28.0625 C3.00580078 29.16916016 3.01160156 30.27582031 3.01757812 31.41601562 C3.10414874 37.20932127 3.5833801 42.14325422 5.4375 47.625 C5.6875 50.9375 5.6875 50.9375 5.4375 53.625 C2.95317103 56.10932897 2.17721462 55.88154203 -1.24609375 55.890625 C-2.17357422 55.89320313 -3.10105469 55.89578125 -4.05664062 55.8984375 C-5.02794922 55.89070313 -5.99925781 55.88296875 -7 55.875 C-8.45116211 55.88660156 -8.45116211 55.88660156 -9.93164062 55.8984375 C-10.86041016 55.89585937 -11.78917969 55.89328125 -12.74609375 55.890625 C-13.59743896 55.88836914 -14.44878418 55.88611328 -15.32592773 55.88378906 C-17.5625 55.625 -17.5625 55.625 -20.5625 53.625 C-20.375 50.875 -20.375 50.875 -19.5625 47.625 C-18.73298828 47.03251465 -17.90347656 46.4400293 -17.04882812 45.82958984 C-14.28855456 43.82678724 -14.28855456 43.82678724 -13.94726562 40.60400391 C-13.95435547 39.44819824 -13.96144531 38.29239258 -13.96875 37.1015625 C-13.97132813 35.833125 -13.97390625 34.5646875 -13.9765625 33.2578125 C-13.99106445 32.59942383 -14.00556641 31.94103516 -14.02050781 31.26269531 C-14.06220636 29.26407435 -14.05860721 27.26467706 -14.0546875 25.265625 C-14.11993472 18.83224929 -14.22714111 14.27635129 -17.5625 8.625 C-18.14 8.08875 -18.7175 7.5525 -19.3125 7 C-19.725 6.54625 -20.1375 6.0925 -20.5625 5.625 C-20.4375 3.5625 -20.4375 3.5625 -19.5625 1.625 C-14.16418608 -1.97387595 -5.87453713 -3.15219065 0 0 Z " fill="#1E403F" transform="translate(895.5625,398.375)"/>
<path d="M0 0 C1.54300781 -0.02513672 1.54300781 -0.02513672 3.1171875 -0.05078125 C6.4803662 0.35542085 8.3729883 1.38812281 11.125 3.3125 C10.51035724 6.56929076 9.37515111 8.58952342 7.421875 11.24609375 C3.53165133 16.92957607 1.00222758 23.03204057 -1.625 29.375 C-2.14376103 30.60688566 -2.66338776 31.83840708 -3.18383789 33.06958008 C-5.72161471 39.08757727 -8.21234091 45.12487878 -10.69921875 51.1640625 C-11.14104492 52.23390381 -11.58287109 53.30374512 -12.03808594 54.40600586 C-12.86119708 56.4043368 -13.6786653 58.40500566 -14.48925781 60.40844727 C-22.07980184 78.91490092 -22.07980184 78.91490092 -30.875 83.3125 C-35.88859955 83.85379128 -39.67747394 84.07891668 -44 81.3125 C-44.61875 80.6525 -45.2375 79.9925 -45.875 79.3125 C-45.57032808 76.49428471 -45.2826558 74.77111277 -43.375 72.625 C-40.91925109 71.33573182 -39.07475447 70.89008473 -36.375 70.375 C-32.42294751 69.59498964 -30.32289425 68.67835459 -27.875 65.3125 C-26.15423617 60.15020852 -26.42868111 55.98520899 -28.5 51.0078125 C-28.86375732 50.12826904 -29.22751465 49.24872559 -29.60229492 48.3425293 C-30.0222876 47.34261963 -30.44228027 46.34270996 -30.875 45.3125 C-31.34848877 44.16499268 -31.82197754 43.01748535 -32.30981445 41.83520508 C-33.63614698 38.62689168 -34.98623258 35.42919425 -36.34643555 32.23510742 C-36.90697518 30.91210371 -37.46232538 29.58688923 -38.01245117 28.25952148 C-41.09248937 20.83539374 -44.10167802 14.20487737 -49.67651367 8.24438477 C-50.875 6.3125 -50.875 6.3125 -49.875 1.3125 C-42.285 1.3125 -34.695 1.3125 -26.875 1.3125 C-25.875 6.3125 -25.875 6.3125 -25.95703125 10.12109375 C-26.01188199 14.53295632 -24.96776796 18.22362101 -23.5625 22.375 C-23.24249023 23.37756836 -23.24249023 23.37756836 -22.91601562 24.40039062 C-21.4768413 28.82101862 -19.94058541 33.14415926 -17.875 37.3125 C-16.885 37.6425 -15.895 37.9725 -14.875 38.3125 C-13.85959495 35.31705509 -12.86398452 32.31669566 -11.875 29.3125 C-11.51535156 28.25289063 -11.15570312 27.19328125 -10.78515625 26.1015625 C-7.97323636 17.51570036 -7.08650827 11.25495865 -8.875 2.3125 C-5.45170149 0.03030099 -4.03362332 0.01508837 0 0 Z " fill="#1C3D3D" transform="translate(726.875,396.6875)"/>
<path d="M0 0 C2.97 0 5.94 0 9 0 C9 35.97 9 71.94 9 109 C11.97 109.33 14.94 109.66 18 110 C40.27724375 114.2269642 62.74595839 126.02162148 76 145 C78.479839 149.16516647 80.39229295 153.13834363 81 158 C80.34 158 79.68 158 79 158 C77.82665037 156.55888596 76.71230731 155.06959052 75.625 153.5625 C62.03595204 136.23401977 38.1703791 125.99441115 17 122 C11.39 121.34 5.78 120.68 0 120 C0 80.4 0 40.8 0 0 Z " fill="#EAE7DC" transform="translate(107,433)"/>
<path d="M0 0 C2.31 0 4.62 0 7 0 C7 39.6 7 79.2 7 120 C-0.425 120.99 -0.425 120.99 -8 122 C-30.57589704 126.11211109 -50.14949711 136.81776759 -66.51171875 152.75 C-68.65850819 154.69120992 -70.35077685 155.90804854 -73 157 C-71.60455181 145.20676103 -61.26429693 135.77538118 -52.32763672 128.67041016 C-37.66203653 117.63927453 -19.68182956 108.8099549 -1 109 C-1.00092179 108.4443187 -1.00184359 107.88863741 -1.00279331 107.31611729 C-1.02484982 93.8132345 -1.04134841 80.31035485 -1.05181217 66.80745792 C-1.0570417 60.27763767 -1.06414061 53.74783037 -1.07543945 47.21801758 C-1.08626585 40.92218841 -1.09227631 34.62637174 -1.09487724 28.33053398 C-1.09673194 25.92265056 -1.1003534 23.51476786 -1.10573006 21.10688972 C-1.1129372 17.74710714 -1.11399108 14.3873769 -1.11352539 11.02758789 C-1.11712067 10.02130341 -1.12071594 9.01501892 -1.12442017 7.97824097 C-1.1230455 7.06813766 -1.12167084 6.15803436 -1.12025452 5.22035217 C-1.12117631 4.42484483 -1.1220981 3.62933748 -1.12304783 2.80972385 C-1 1 -1 1 0 0 Z " fill="#EAE7DC" transform="translate(295,433)"/>
<path d="M0 0 C3.59823032 3.3500765 6.68483178 6.25312552 7.26817894 11.33733559 C7.37025344 14.3622346 7.37065091 17.3731454 7.34057617 20.3996582 C7.34101425 21.55130966 7.34145233 22.70296112 7.34190369 23.88951111 C7.33981485 27.69344069 7.31647843 31.49692872 7.29296875 35.30078125 C7.28737316 37.93922179 7.28310289 40.57766545 7.28010559 43.21611023 C7.27079031 49.44922994 7.24618367 55.68219134 7.21605712 61.91524142 C7.1824969 69.01314432 7.16602305 76.11105488 7.15097082 83.2090174 C7.11963356 97.80609518 7.06627718 112.40304008 7 127 C2.71 127 -1.58 127 -6 127 C-6.11595605 111.90062865 -6.20508069 96.80130914 -6.25906086 81.70159245 C-6.28479587 74.68982304 -6.31985537 67.6783361 -6.37719727 60.66674805 C-6.43253039 53.89753489 -6.46143981 47.12861511 -6.47438622 40.35918999 C-6.48360997 37.77924423 -6.50162187 35.19931414 -6.52865028 32.61949348 C-6.56505632 28.99996662 -6.56994021 25.381644 -6.56762695 21.76196289 C-6.58560333 20.70028397 -6.60357971 19.63860504 -6.62210083 18.54475403 C-6.57351339 11.49818712 -5.17429039 5.17429039 0 0 Z " fill="#F6F1E5" transform="translate(204,381)"/>
<path d="M0 0 C6.6 0 13.2 0 20 0 C21.00462159 3.01386477 21.13162085 5.22104118 21.25 8.375 C21.9171144 16.97452162 24.65223877 25.1953587 29.875 32.125 C30.57625 33.07375 31.2775 34.0225 32 35 C31 38 31 38 28.375 40 C19.99163548 46.66628986 15.38241925 57.81728016 13.52734375 68.08203125 C13 70 13 70 11 72 C10.95046313 67.80079763 10.91421589 63.60175131 10.89013672 59.40234375 C10.88009573 57.97457922 10.86646019 56.54683517 10.84912109 55.11914062 C10.82478848 53.06375059 10.81349798 51.00863308 10.8046875 48.953125 C10.79421387 47.71723633 10.78374023 46.48134766 10.77294922 45.20800781 C10.99195001 42.11373855 11.51564377 40.63675247 13 38 C13.16724737 34.83304044 13.16724737 34.83304044 13 32 C11.02 32 9.04 32 7 32 C7.14049518 33.47968324 7.28754826 34.95874516 7.4375 36.4375 C7.51871094 37.26121094 7.59992188 38.08492187 7.68359375 38.93359375 C7.78930815 40.98662025 7.78930815 40.98662025 9 42 C9.08783542 44.21855264 9.10694609 46.43988496 9.09765625 48.66015625 C9.0962413 49.32462265 9.09482635 49.98908905 9.09336853 50.6736908 C9.08775518 52.80333899 9.07520054 54.93288339 9.0625 57.0625 C9.05748671 58.50325369 9.05292351 59.94400903 9.04882812 61.38476562 C9.03778145 64.92321102 9.02050792 68.46159539 9 72 C8.34 72 7.68 72 7 72 C6.76925781 71.17757812 6.53851563 70.35515625 6.30078125 69.5078125 C2.93333304 57.98129018 -1.52488026 44.98341316 -12 38 C-11.37447917 34.81740501 -10.75345703 33.67349715 -8.6875 30.9375 C-1.94320829 21.6982102 -1.13113462 11.02856259 0 0 Z " fill="#F0ECE0" transform="translate(195,527)"/>
<path d="M0 0 C2.72817473 2.72817473 2.26231489 4.23173317 2.28710938 8.05102539 C2.30052368 9.32317398 2.31393799 10.59532257 2.32775879 11.90602112 C2.33160332 12.929724 2.33160332 12.929724 2.33552551 13.97410774 C2.34381731 16.11503588 2.36432993 18.25553795 2.38806152 20.39634705 C2.43634398 24.95166784 2.46917605 29.50703212 2.5 34.0625 C2.53577964 39.31918294 2.57802556 44.57566195 2.63594055 49.83215141 C2.65583181 51.9285809 2.66429647 54.02484954 2.67224121 56.12135315 C2.77365093 65.90537315 3.00661049 73.87992388 9 82 C9.33 82.99 9.66 83.98 10 85 C6.62301212 87.04173535 4.05453777 87.23525039 0.140625 87.1953125 C-0.97441406 87.18886719 -2.08945312 87.18242187 -3.23828125 87.17578125 C-4.39714844 87.15902344 -5.55601562 87.14226562 -6.75 87.125 C-7.92433594 87.11597656 -9.09867187 87.10695313 -10.30859375 87.09765625 C-13.20593536 87.07410063 -16.10286441 87.04120652 -19 87 C-19.66 85.68 -20.32 84.36 -21 83 C-19.76302083 81.4375 -18.52604167 79.875 -17.2890625 78.3125 C-13.38461632 71.30816019 -13.705863 63.55110259 -13.734375 55.765625 C-13.73246155 54.61004089 -13.7305481 53.45445679 -13.72857666 52.26385498 C-13.72722112 49.83329041 -13.73087327 47.40271845 -13.73925781 44.97216797 C-13.75000517 41.24820819 -13.73932078 37.52472653 -13.7265625 33.80078125 C-13.72788344 31.43489477 -13.73044448 29.06900858 -13.734375 26.703125 C-13.73032654 25.58955627 -13.72627808 24.47598755 -13.72210693 23.32867432 C-13.72841125 22.29369812 -13.73471558 21.25872192 -13.74121094 20.19238281 C-13.74280212 19.28385559 -13.74439331 18.37532837 -13.74603271 17.43927002 C-14.09360709 14.10093553 -15.05780273 11.88361505 -17.5078125 9.5859375 C-18.04148437 9.18632812 -18.57515625 8.78671875 -19.125 8.375 C-20.07375 7.59125 -21.0225 6.8075 -22 6 C-22 5.34 -22 4.68 -22 4 C-15.75915764 -0.16056158 -7.3682289 -0.94714474 0 0 Z " fill="#1B3E3E" transform="translate(465,367)"/>
<path d="M0 0 C19 0 19 0 27 4 C31.97189061 9.13227418 31.34694858 15.73731483 31.26953125 22.5078125 C30.8820923 27.52767369 30.01042755 29.9359228 27 34 C19 38 19 38 0 38 C0 25.46 0 12.92 0 0 Z " fill="#18393B" transform="translate(897,511)"/>
<path d="M0 0 C19 0 19 0 27 4 C32.0089931 9.50989241 31.69449192 16.11902372 31.375 23.234375 C30.88090868 28.19587531 30.35247241 30.31228034 27 34 C19 38 19 38 0 38 C0 25.46 0 12.92 0 0 Z " fill="#1A3D3C" transform="translate(696,511)"/>
<path d="M0 0 C19.13043478 0 19.13043478 0 25.75 5.4375 C30.21658517 11.02073146 29.67515459 18.25658845 29 25 C27.61539548 29.3993592 25.54453741 33.00903836 22 36 C17 38 17 38 0 38 C0 25.46 0 12.92 0 0 Z " fill="#EDE7D6" transform="translate(452,576)"/>
<path d="M0 0 C18 0 18 0 24 4 C28.13293135 8.78622332 28.60222787 12.4528931 28.4375 18.5 C28.44458984 19.23347656 28.45167969 19.96695313 28.45898438 20.72265625 C28.40329882 25.51161428 27.6231829 28.86106282 25 33 C16.71228818 39.52436888 11.46941652 38 0 38 C0 25.46 0 12.92 0 0 Z " fill="#EEE8D7" transform="translate(542,576)"/>
<path d="M0 0 C18 0 18 0 24 3 C25.72617094 6.45234188 25.50110436 10.22544766 25 14 C23 17.0625 23 17.0625 21 19 C21.61875 19.28875 22.2375 19.5775 22.875 19.875 C25 21 25 21 27 23 C27.34750488 27.23955952 27.43481224 29.94729669 25.8125 33.875 C24 36 24 36 19 38 C12.73 38 6.46 38 0 38 C0 25.46 0 12.92 0 0 Z " fill="#1A3B3A" transform="translate(459,511)"/>
<path d="M0 0 C17 0 17 0 22 4 C23.52846661 7.05693322 23.23242445 9.62984547 23 13 C21.625 15.4375 21.625 15.4375 20 17 C19.34 17 18.68 17 18 17 C18 17.66 18 18.32 18 19 C18.598125 19.0825 19.19625 19.165 19.8125 19.25 C22.76224781 20.26134211 23.54953762 21.24412147 25 24 C25.52320903 28.11092805 25.45925779 30.23457035 23.3125 33.8125 C16.43444479 40.31876844 9.82120353 38 0 38 C0 25.46 0 12.92 0 0 Z " fill="#204242" transform="translate(360,576)"/>
<path d="M0 0 C4.36689038 0.6442953 4.36689038 0.6442953 6.625 3.625 C7.70824854 5.25725188 8.76649639 6.90613348 9.8125 8.5625 C11.09206969 10.48058963 12.38180955 12.39161387 13.67211914 14.30249023 C15.73472298 17.37861779 17.77084555 20.47242841 19.8125 23.5625 C20.1425 15.9725 20.4725 8.3825 20.8125 0.5625 C23.1225 0.5625 25.4325 0.5625 27.8125 0.5625 C27.8125 13.1025 27.8125 25.6425 27.8125 38.5625 C19.8125 38.5625 19.8125 38.5625 17.74267578 36.8659668 C17.00766846 35.70061401 17.00766846 35.70061401 16.2578125 34.51171875 C15.70609375 33.66802734 15.154375 32.82433594 14.5859375 31.95507812 C14.04195312 31.06240234 13.49796875 30.16972656 12.9375 29.25 C12.3703125 28.36892578 11.803125 27.48785156 11.21875 26.58007812 C10.16855207 24.94381002 9.12965787 23.30019156 8.10595703 21.6472168 C7.04130908 19.93128081 5.93265268 18.24272902 4.8125 16.5625 C4.4825 23.8225 4.1525 31.0825 3.8125 38.5625 C1.5025 38.5625 -0.8075 38.5625 -3.1875 38.5625 C-4.97580448 36.77419552 -4.31598711 34.36668848 -4.32644653 31.98608398 C-4.3244223 31.20692627 -4.32239807 30.42776855 -4.3203125 29.625 C-4.32126923 28.829729 -4.32222595 28.03445801 -4.32321167 27.21508789 C-4.32389343 25.5304354 -4.32203943 23.84578029 -4.31787109 22.16113281 C-4.31252275 19.57350803 -4.31781619 16.98605684 -4.32421875 14.3984375 C-4.32355797 12.76562461 -4.3222768 11.13281184 -4.3203125 9.5 C-4.32233673 8.72084229 -4.32436096 7.94168457 -4.32644653 7.13891602 C-4.29841373 0.7585436 -4.29841373 0.7585436 0 0 Z " fill="#1A3A3A" transform="translate(630.1875,510.4375)"/>
<path d="M0 0 C3.71875 0.39453125 3.71875 0.39453125 6.125 2.6328125 C6.8159375 3.64730469 7.506875 4.66179688 8.21875 5.70703125 C8.97027344 6.79113281 9.72179687 7.87523437 10.49609375 8.9921875 C11.24055261 10.1239596 11.9814706 11.25806912 12.71875 12.39453125 C13.42128906 13.46574219 14.12382813 14.53695312 14.84765625 15.640625 C16.49974623 18.20720519 18.11331668 20.79851141 19.71875 23.39453125 C20.04875 15.80453125 20.37875 8.21453125 20.71875 0.39453125 C23.02875 0.39453125 25.33875 0.39453125 27.71875 0.39453125 C27.71875 12.93453125 27.71875 25.47453125 27.71875 38.39453125 C19.71875 38.39453125 19.71875 38.39453125 17.64892578 36.69799805 C16.91391846 35.53264526 16.91391846 35.53264526 16.1640625 34.34375 C15.61234375 33.50005859 15.060625 32.65636719 14.4921875 31.78710938 C13.94820312 30.89443359 13.40421875 30.00175781 12.84375 29.08203125 C12.2765625 28.20095703 11.709375 27.31988281 11.125 26.41210938 C10.07480207 24.77584127 9.03590787 23.13222281 8.01220703 21.47924805 C6.94755908 19.76331206 5.83890268 18.07476027 4.71875 16.39453125 C4.38875 23.65453125 4.05875 30.91453125 3.71875 38.39453125 C1.40875 38.39453125 -0.90125 38.39453125 -3.28125 38.39453125 C-5.06955448 36.60622677 -4.40973711 34.19871973 -4.42019653 31.81811523 C-4.4181723 31.03895752 -4.41614807 30.2597998 -4.4140625 29.45703125 C-4.41501923 28.66176025 -4.41597595 27.86648926 -4.41696167 27.04711914 C-4.41764343 25.36246665 -4.41578943 23.67781154 -4.41162109 21.99316406 C-4.40627275 19.40553928 -4.41156619 16.81808809 -4.41796875 14.23046875 C-4.41730797 12.59765586 -4.4160268 10.96484309 -4.4140625 9.33203125 C-4.41608673 8.55287354 -4.41811096 7.77371582 -4.42019653 6.97094727 C-4.39188912 0.52807238 -4.39188912 0.52807238 0 0 Z " fill="#1A3A3B" transform="translate(861.28125,510.60546875)"/>
<path d="M0 0 C18 0 18 0 24 3 C26.68186667 7.0228 26.57140016 10.27528823 26 15 C24.625 17.5625 24.625 17.5625 23 19 C22.34 19 21.68 19 21 19 C21.42152344 19.78503906 21.84304688 20.57007813 22.27734375 21.37890625 C27.71880492 31.81370826 27.71880492 31.81370826 28 38 C25.69 38 23.38 38 21 38 C20.18501438 36.3970947 19.37310073 34.79262722 18.5625 33.1875 C18.11003906 32.29417969 17.65757812 31.40085937 17.19140625 30.48046875 C16 28 16 28 15 25 C12.69 24.34 10.38 23.68 8 23 C8 27.95 8 32.9 8 38 C5.36 38 2.72 38 0 38 C0 25.46 0 12.92 0 0 Z " fill="#183A3B" transform="translate(392,511)"/>
<path d="M0 0 C18 0 18 0 24 3 C26.66301861 6.99452792 26.84758428 10.30125605 26 15 C23.5 18.0625 23.5 18.0625 21 20 C21.44988281 20.556875 21.89976562 21.11375 22.36328125 21.6875 C24.04900422 24.06923747 25.11067559 26.2934988 26.1875 29 C26.53167969 29.845625 26.87585938 30.69125 27.23046875 31.5625 C28 34 28 34 28 38 C25.36 38 22.72 38 20 38 C19.66226563 37.15695312 19.32453125 36.31390625 18.9765625 35.4453125 C18.53054688 34.34960938 18.08453125 33.25390625 17.625 32.125 C17.18414063 31.03445313 16.74328125 29.94390625 16.2890625 28.8203125 C15.16948662 25.93670638 15.16948662 25.93670638 13 24 C11.35 23.67 9.7 23.34 8 23 C8 27.95 8 32.9 8 38 C5.36 38 2.72 38 0 38 C0 25.46 0 12.92 0 0 Z " fill="#193A39" transform="translate(764,511)"/>
<path d="M0 0 C3.5 0.125 3.5 0.125 4.5 1.125 C4.64426614 5.79345228 4.54208415 10.45365953 4.5 15.125 C9.78 15.125 15.06 15.125 20.5 15.125 C20.479375 12.835625 20.45875 10.54625 20.4375 8.1875 C20.41629132 5.83333668 20.42728259 3.47813555 20.5 1.125 C20.83 0.795 21.16 0.465 21.5 0.125 C23.81 0.125 26.12 0.125 28.5 0.125 C28.5 12.665 28.5 25.205 28.5 38.125 C25.86 38.125 23.22 38.125 20.5 38.125 C20.5 32.845 20.5 27.565 20.5 22.125 C15.22 22.125 9.94 22.125 4.5 22.125 C4.5395679 27.01653471 4.5395679 27.01653471 4.59008789 31.90795898 C4.59724913 33.64721717 4.55024702 35.38645304 4.5 37.125 C3.5 38.125 3.5 38.125 0 38.25 C-3.5 38.125 -3.5 38.125 -4.5 37.125 C-4.60095564 34.47043807 -4.63970998 31.84244824 -4.6328125 29.1875 C-4.63376923 28.392229 -4.63472595 27.59695801 -4.63571167 26.77758789 C-4.63639343 25.0929354 -4.63453943 23.40828029 -4.63037109 21.72363281 C-4.62502275 19.13600803 -4.63031619 16.54855684 -4.63671875 13.9609375 C-4.63605797 12.32812461 -4.6347768 10.69531184 -4.6328125 9.0625 C-4.63483673 8.28334229 -4.63686096 7.50418457 -4.63894653 6.70141602 C-4.61022661 0.16465095 -4.61022661 0.16465095 0 0 Z " fill="#1B3B3A" transform="translate(572.5,510.875)"/>
<path d="M0 0 C5.54816095 0.10271918 8.57758941 0.76695018 12.80175781 4.3190918 C16.89148368 9.90838382 16.70809604 15.63904341 15.80175781 22.3190918 C13.93919816 26.31029105 10.88980427 28.77394882 6.80175781 30.3190918 C4.21350474 30.50998248 1.76001291 30.59878438 -0.82324219 30.5690918 C-1.50386719 30.57682617 -2.18449219 30.58456055 -2.88574219 30.5925293 C-7.94480097 30.57253302 -7.94480097 30.57253302 -10.19824219 28.3190918 C-10.44116211 25.62939453 -10.44116211 25.62939453 -10.42871094 22.25268555 C-10.42677734 21.04547852 -10.42484375 19.83827148 -10.42285156 18.59448242 C-10.41060547 17.32797852 -10.39835938 16.06147461 -10.38574219 14.7565918 C-10.38509766 13.4862207 -10.38445313 12.21584961 -10.38378906 10.90698242 C-10.33148163 0.03284856 -10.33148163 0.03284856 0 0 Z " fill="#F1EBDA" transform="translate(571.1982421875,415.680908203125)"/>
<path d="M0 0 C2.05078125 0.03255208 4.1015625 0.06510417 6.15234375 0.09765625 C9.20148083 7.46195839 11.87941262 14.91320706 14.40234375 22.47265625 C14.76585937 23.53871094 15.129375 24.60476563 15.50390625 25.703125 C15.84679687 26.72792969 16.1896875 27.75273438 16.54296875 28.80859375 C16.85266602 29.72946777 17.16236328 30.6503418 17.48144531 31.59912109 C18.15234375 34.09765625 18.15234375 34.09765625 18.15234375 38.09765625 C15.51234375 38.09765625 12.87234375 38.09765625 10.15234375 38.09765625 C9.16234375 34.63265625 9.16234375 34.63265625 8.15234375 31.09765625 C3.86234375 30.76765625 -0.42765625 30.43765625 -4.84765625 30.09765625 C-5.50765625 32.73765625 -6.16765625 35.37765625 -6.84765625 38.09765625 C-9.48765625 38.09765625 -12.12765625 38.09765625 -14.84765625 38.09765625 C-12.70701017 29.74045539 -10.06805909 21.61417985 -7.22265625 13.47265625 C-6.61164062 11.69955078 -6.61164062 11.69955078 -5.98828125 9.890625 C-2.5987676 0.13735558 -2.5987676 0.13735558 0 0 Z " fill="#1B3C3C" transform="translate(834.84765625,510.90234375)"/>
<path d="M0 0 C2.97 0 5.94 0 9 0 C9.25692627 0.74572266 9.51385254 1.49144531 9.77856445 2.25976562 C10.95543373 5.67356063 12.13395366 9.08678362 13.3125 12.5 C13.91868164 14.25957031 13.91868164 14.25957031 14.53710938 16.0546875 C17.06075227 23.3625367 17.06075227 23.3625367 19.79296875 30.59375 C21 34 21 34 21 38 C18.36 38 15.72 38 13 38 C12.34 35.36 11.68 32.72 11 30 C4.565 30.495 4.565 30.495 -2 31 C-2.99 33.31 -3.98 35.62 -5 38 C-7.31 38 -9.62 38 -12 38 C-10.41629695 29.70831336 -7.67084512 21.88046291 -4.875 13.9375 C-4.4018818 12.5815413 -3.92922194 11.22542259 -3.45703125 9.86914062 C-2.30996322 6.57756639 -1.15671656 3.28819785 0 0 Z " fill="#1B3C3C" transform="translate(434,511)"/>
<path d="M0 0 C6.0546875 -0.1953125 6.0546875 -0.1953125 8 0 C10.74454337 2.74454337 11.45593803 5.94531861 12.6015625 9.5625 C12.8428891 10.30959229 13.0842157 11.05668457 13.33285522 11.82641602 C13.8416627 13.40580786 14.34749867 14.98615961 14.85058594 16.56738281 C15.62261916 18.99252121 16.40426307 21.41439719 17.1875 23.8359375 C17.68025698 25.36960881 18.17246324 26.9034572 18.6640625 28.4375 C18.89839996 29.16461182 19.13273743 29.89172363 19.37417603 30.64086914 C21 35.76764888 21 35.76764888 21 38 C18.36 38 15.72 38 13 38 C12.34 35.36 11.68 32.72 11 30 C4.565 30.495 4.565 30.495 -2 31 C-2.99 33.31 -3.98 35.62 -5 38 C-7.31 38 -9.62 38 -12 38 C-11.39754257 32.05575334 -9.72385074 26.85062724 -7.6875 21.25 C-7.37353271 20.37053711 -7.05956543 19.49107422 -6.73608398 18.58496094 C-5.8307899 16.05415171 -4.91679894 13.52666042 -4 11 C-3.55398438 9.7625 -3.10796875 8.525 -2.6484375 7.25 C-1.77268074 4.8306432 -0.89128609 2.41366918 0 0 Z " fill="#1B3C3D" transform="translate(367,511)"/>
<path d="M0 0 C0.70833984 -0.020625 1.41667969 -0.04125 2.14648438 -0.0625 C6.92845862 -0.09782391 10.17984879 0.59816384 14.3125 3.25 C16.79636059 6.97579089 16.6929212 8.83711402 16.3125 13.25 C14.66110695 16.7886994 13.59644771 18.06070153 10.3125 20.25 C10.89 20.848125 11.4675 21.44625 12.0625 22.0625 C15.20598895 26.51577601 18.3125 32.66539401 18.3125 38.25 C15.9765625 38.1171875 15.9765625 38.1171875 13.3125 37.25 C11.8359375 34.6328125 11.8359375 34.6328125 10.6875 31.375 C8.97110049 26.13596846 8.97110049 26.13596846 5.3125 22.25 C3.04088745 21.67676193 3.04088745 21.67676193 0.625 21.5625 C-0.798125 21.459375 -2.22125 21.35625 -3.6875 21.25 C-3.6875 26.86 -3.6875 32.47 -3.6875 38.25 C-5.3375 38.25 -6.9875 38.25 -8.6875 38.25 C-8.71214928 32.99894558 -8.73033568 27.74792455 -8.74243164 22.49682617 C-8.74747218 20.70905979 -8.75430454 18.92129755 -8.76293945 17.13354492 C-8.7750173 14.56948832 -8.78073094 12.00548603 -8.78515625 9.44140625 C-8.79031754 8.6372377 -8.79547882 7.83306915 -8.80079651 7.00453186 C-8.80099215 5.08598285 -8.74951983 3.16754632 -8.6875 1.25 C-6.66913658 -0.76836342 -2.75741767 0.01953883 0 0 Z " fill="#153837" transform="translate(693.6875,575.75)"/>
<path d="M0 0 C3.609375 -0.020625 7.21875 -0.04125 10.9375 -0.0625 C12.07695068 -0.071604 13.21640137 -0.08070801 14.39038086 -0.09008789 C15.28120361 -0.09258545 16.17202637 -0.09508301 17.08984375 -0.09765625 C18.46450806 -0.10551147 18.46450806 -0.10551147 19.86694336 -0.11352539 C22 0 22 0 23 1 C23.125 3.5 23.125 3.5 23 6 C22 7 22 7 18.83984375 7.09765625 C16.90818359 7.08025391 16.90818359 7.08025391 14.9375 7.0625 C13.64714844 7.05347656 12.35679687 7.04445313 11.02734375 7.03515625 C10.02832031 7.02355469 9.02929688 7.01195312 8 7 C8 9.64 8 12.28 8 15 C12.29 15 16.58 15 21 15 C21 17.31 21 19.62 21 22 C16.71 22 12.42 22 8 22 C8 24.97 8 27.94 8 31 C8.99902344 30.98839844 9.99804688 30.97679687 11.02734375 30.96484375 C12.31769531 30.95582031 13.60804688 30.94679688 14.9375 30.9375 C16.22527344 30.92589844 17.51304687 30.91429687 18.83984375 30.90234375 C22 31 22 31 23 32 C23.125 34.5 23.125 34.5 23 37 C22 38 22 38 19.86694336 38.11352539 C18.49227905 38.10567017 18.49227905 38.10567017 17.08984375 38.09765625 C16.199021 38.09515869 15.30819824 38.09266113 14.39038086 38.09008789 C13.25093018 38.08098389 12.11147949 38.07187988 10.9375 38.0625 C7.328125 38.041875 3.71875 38.02125 0 38 C0 25.46 0 12.92 0 0 Z " fill="#173838" transform="translate(734,511)"/>
<path d="M0 0 C3.609375 -0.020625 7.21875 -0.04125 10.9375 -0.0625 C12.07695068 -0.071604 13.21640137 -0.08070801 14.39038086 -0.09008789 C15.28120361 -0.09258545 16.17202637 -0.09508301 17.08984375 -0.09765625 C18.46450806 -0.10551147 18.46450806 -0.10551147 19.86694336 -0.11352539 C22 0 22 0 23 1 C23.125 3.5 23.125 3.5 23 6 C22 7 22 7 18.83984375 7.09765625 C16.90818359 7.08025391 16.90818359 7.08025391 14.9375 7.0625 C13.64714844 7.05347656 12.35679687 7.04445313 11.02734375 7.03515625 C10.02832031 7.02355469 9.02929688 7.01195312 8 7 C8 9.64 8 12.28 8 15 C8.85464844 14.98839844 9.70929687 14.97679687 10.58984375 14.96484375 C11.69457031 14.95582031 12.79929687 14.94679688 13.9375 14.9375 C15.03964844 14.92589844 16.14179687 14.91429687 17.27734375 14.90234375 C20 15 20 15 21 16 C21 17.98 21 19.96 21 22 C16.71 22 12.42 22 8 22 C8 24.97 8 27.94 8 31 C8.99902344 30.98839844 9.99804688 30.97679687 11.02734375 30.96484375 C12.31769531 30.95582031 13.60804688 30.94679688 14.9375 30.9375 C16.22527344 30.92589844 17.51304687 30.91429687 18.83984375 30.90234375 C22 31 22 31 23 32 C23.125 34.5 23.125 34.5 23 37 C22 38 22 38 19.86694336 38.11352539 C18.49227905 38.10567017 18.49227905 38.10567017 17.08984375 38.09765625 C16.199021 38.09515869 15.30819824 38.09266113 14.39038086 38.09008789 C13.25093018 38.08098389 12.11147949 38.07187988 10.9375 38.0625 C7.328125 38.041875 3.71875 38.02125 0 38 C0 25.46 0 12.92 0 0 Z " fill="#193B3B" transform="translate(666,511)"/>
<path d="M0 0 C1.15371094 -0.01417969 2.30742188 -0.02835937 3.49609375 -0.04296875 C6.5625 0.1875 6.5625 0.1875 9.5625 2.1875 C9.2325 4.1675 8.9025 6.1475 8.5625 8.1875 C4.2725 7.8575 -0.0175 7.5275 -4.4375 7.1875 C-4.4375 9.1675 -4.4375 11.1475 -4.4375 13.1875 C-3.6125 13.414375 -2.7875 13.64125 -1.9375 13.875 C2.48089496 15.53189811 8.35628887 17.77507775 10.5625 22.1875 C11.09368252 27.10746928 11.31355553 30.96077597 8.6875 35.25 C5.05385369 38.56303046 2.5434781 38.37692647 -2.3125 38.4375 C-3.54742188 38.46328125 -4.78234375 38.4890625 -6.0546875 38.515625 C-9.59938936 38.17179711 -11.00768196 37.74424883 -13.4375 35.1875 C-13.6875 32.5 -13.6875 32.5 -13.4375 30.1875 C-10.4375 29.1875 -10.4375 29.1875 -8.125 30.125 C-5.05993489 31.33676993 -2.70381039 31.33942141 0.5625 31.1875 C0.8925 29.5375 1.2225 27.8875 1.5625 26.1875 C0.73105469 25.72859375 -0.10039063 25.2696875 -0.95703125 24.796875 C-2.04371094 24.18328125 -3.13039063 23.5696875 -4.25 22.9375 C-5.32894531 22.33421875 -6.40789063 21.7309375 -7.51953125 21.109375 C-10.28611076 19.28721018 -11.81270237 18.03782759 -13.4375 15.1875 C-14.28207478 8.64204545 -14.28207478 8.64204545 -12.3828125 5.37109375 C-8.41280917 0.49668138 -6.08782596 0.03393437 0 0 Z " fill="#1D3E3E" transform="translate(946.4375,510.8125)"/>
<path d="M0 0 C0.53882813 0.32097656 1.07765625 0.64195312 1.6328125 0.97265625 C1.3028125 2.95265625 0.9728125 4.93265625 0.6328125 6.97265625 C-4.8121875 6.47765625 -4.8121875 6.47765625 -10.3671875 5.97265625 C-10.6971875 7.62265625 -11.0271875 9.27265625 -11.3671875 10.97265625 C-10.52414062 11.44316406 -9.68109375 11.91367187 -8.8125 12.3984375 C-7.71679688 13.02105469 -6.62109375 13.64367187 -5.4921875 14.28515625 C-4.40164063 14.90003906 -3.31109375 15.51492188 -2.1875 16.1484375 C0.6328125 17.97265625 0.6328125 17.97265625 2.6328125 20.97265625 C3.34488688 25.85781769 3.36133893 29.78272975 0.7578125 34.03515625 C-2.73757198 37.22212445 -5.01346841 37.15924217 -9.6796875 37.22265625 C-10.81019531 37.2484375 -11.94070313 37.27421875 -13.10546875 37.30078125 C-16.68383518 36.94080187 -18.55352066 36.18488873 -21.3671875 33.97265625 C-21.6796875 31.28515625 -21.6796875 31.28515625 -21.3671875 28.97265625 C-18.3671875 27.97265625 -18.3671875 27.97265625 -16.0546875 28.91015625 C-12.98962239 30.12192618 -10.63349789 30.12457766 -7.3671875 29.97265625 C-7.0371875 28.32265625 -6.7071875 26.67265625 -6.3671875 24.97265625 C-7.21023438 24.50214844 -8.05328125 24.03164063 -8.921875 23.546875 C-10.01757812 22.92425781 -11.11328125 22.30164063 -12.2421875 21.66015625 C-13.87800781 20.73783203 -13.87800781 20.73783203 -15.546875 19.796875 C-18.3671875 17.97265625 -18.3671875 17.97265625 -20.3671875 14.97265625 C-21.24002746 9.55097725 -21.33077005 5.33773153 -18.1171875 0.78515625 C-13.14386694 -2.49866306 -5.3300537 -2.31320812 0 0 Z " fill="#1A3B3B" transform="translate(526.3671875,512.02734375)"/>
<path d="M0 0 C4.85979485 0.04617382 8.25748771 0.33870912 12.3125 3.25 C15.3503907 6.49187377 15.7207409 8.7941608 15.6875 13.1875 C15.69523438 14.20714844 15.70296875 15.22679687 15.7109375 16.27734375 C15.10885227 20.76937181 13.58586147 23.24009262 10.046875 26.046875 C6.70084313 27.51912902 4.20576242 27.58242675 0.5625 27.5 C-1.16226563 27.47679687 -1.16226563 27.47679687 -2.921875 27.453125 C-5.6875 27.25 -5.6875 27.25 -6.6875 26.25 C-6.78709621 24.40840977 -6.81830411 22.56303033 -6.8203125 20.71875 C-6.82160156 19.59855469 -6.82289063 18.47835938 -6.82421875 17.32421875 C-6.82035156 16.14472656 -6.81648437 14.96523438 -6.8125 13.75 C-6.81636719 12.57050781 -6.82023438 11.39101563 -6.82421875 10.17578125 C-6.82292969 9.05558594 -6.82164062 7.93539063 -6.8203125 6.78125 C-6.81918457 5.74548828 -6.81805664 4.70972656 -6.81689453 3.64257812 C-6.5717011 -0.89118721 -3.97446807 0.05866374 0 0 Z " fill="#F3ECDC" transform="translate(567.6875,380.75)"/>
<path d="M0 0 C1.3096875 -0.00515625 2.619375 -0.0103125 3.96875 -0.015625 C7.15242072 0.22385466 8.86102529 0.55351625 11.5 2.25 C11.17 3.9 10.84 5.55 10.5 7.25 C6.33506988 8.53680624 2.46130089 8.1488131 -1.84375 7.89453125 C-4.59322074 8.05975824 -4.59322074 8.05975824 -6.80859375 9.828125 C-10.16652186 14.63624377 -9.25296699 20.65558736 -8.5 26.25 C-6.72258713 29.78331024 -6.72258713 29.78331024 -3.5 31.25 C0.32902737 31.67544749 3.56654244 31.24034061 7.375 30.6875 C8.40625 30.543125 9.4375 30.39875 10.5 30.25 C11.5 31.25 11.5 31.25 11.5625 33.8125 C11.541875 34.616875 11.52125 35.42125 11.5 36.25 C7.74629436 38.6811565 3.95188858 38.61706075 -0.375 38.625 C-1.06980469 38.64949219 -1.76460937 38.67398438 -2.48046875 38.69921875 C-7.64906195 38.72841984 -10.55369011 37.53366115 -14.5 34.25 C-18.41397465 27.63673248 -19.39000446 19.46923643 -17.875 11.9375 C-16.12751245 7.25105613 -14.04433095 3.97357903 -9.8046875 1.1015625 C-6.49896156 -0.11987522 -3.51256273 -0.01382899 0 0 Z " fill="#1B3C3D" transform="translate(551.5,510.75)"/>
<path d="M0 0 C1.65 0 3.3 0 5 0 C10.31819366 12.21301994 15.60829305 24.84561176 18 38 C16.68 38 15.36 38 14 38 C11 31.375 11 31.375 11 28 C5.39 28 -0.22 28 -6 28 C-6.66 30.64 -7.32 33.28 -8 36 C-8.33 36.66 -8.66 37.32 -9 38 C-10.32 38 -11.64 38 -13 38 C-12.44158224 31.22196378 -10.06230562 25.30922785 -7.625 19 C-7.02558594 17.41832031 -7.02558594 17.41832031 -6.4140625 15.8046875 C-4.3872173 10.48421886 -2.29449084 5.21071469 0 0 Z " fill="#1F413E" transform="translate(754,576)"/>
<path d="M0 0 C5 0 5 0 6.57885742 1.40283203 C7.02076416 2.05622559 7.4626709 2.70961914 7.91796875 3.3828125 C8.67279541 4.47964355 8.67279541 4.47964355 9.44287109 5.59863281 C9.95672363 6.39108398 10.47057617 7.18353516 11 8 C11.52287598 8.7950293 12.04575195 9.59005859 12.58447266 10.40917969 C14.18582207 12.88269701 15.7535978 15.37454417 17.3125 17.875 C17.84939453 18.72835937 18.38628906 19.58171875 18.93945312 20.4609375 C22.83557356 26.67114713 22.83557356 26.67114713 24 29 C24.33 19.43 24.66 9.86 25 0 C26.32 0 27.64 0 29 0 C29 12.54 29 25.08 29 38 C27.35 38 25.7 38 24 38 C22.21069336 36.07568359 22.21069336 36.07568359 20.58984375 33.3984375 C19.99236328 32.43292969 19.39488281 31.46742188 18.77929688 30.47265625 C18.17150391 29.45042969 17.56371094 28.42820312 16.9375 27.375 C15.71768009 25.38267033 14.49763411 23.39047906 13.27734375 21.3984375 C12.74359131 20.50817871 12.20983887 19.61791992 11.65991211 18.70068359 C9.84822229 15.75305705 7.91919232 12.87878847 6 10 C5.67 19.24 5.34 28.48 5 38 C3.35 38 1.7 38 0 38 C0 25.46 0 12.92 0 0 Z " fill="#1B393B" transform="translate(820,576)"/>
<path d="M0 0 C1.65 0 3.3 0 5 0 C6.68164062 1.70898438 6.68164062 1.70898438 8.15625 4.09375 C8.70410156 4.96 9.25195312 5.82625 9.81640625 6.71875 C10.37199219 7.6365625 10.92757812 8.554375 11.5 9.5 C12.05558594 10.386875 12.61117187 11.27375 13.18359375 12.1875 C14.23642748 13.87203398 15.2822304 15.5609994 16.31835938 17.25585938 C18.52199121 20.85179751 20.76476352 24.42362163 23 28 C23.33 18.76 23.66 9.52 24 0 C25.65 0 27.3 0 29 0 C29 12.21 29 24.42 29 37 C26.525 37.495 26.525 37.495 24 38 C17.17327133 28.64930474 11.14597305 18.80593454 5 9 C4.67 18.57 4.34 28.14 4 38 C2.68 38 1.36 38 0 38 C0 25.46 0 12.92 0 0 Z " fill="#163536" transform="translate(926,576)"/>
<path d="M0 0 C19.13043478 0 19.13043478 0 25.75 5.4375 C30.21658517 11.02073146 29.67515459 18.25658845 29 25 C27.61539548 29.3993592 25.54453741 33.00903836 22 36 C17 38 17 38 0 38 C0 25.46 0 12.92 0 0 Z M4 4 C4 13.9 4 23.8 4 34 C15.88017334 35.24948026 15.88017334 35.24948026 20.1875 31.75 C24.49402324 25.21596474 24.79446459 19.79931706 24 12 C22.43767422 7.64320492 20.1724615 6.08623075 16 4 C12.04 4 8.08 4 4 4 Z " fill="#153435" transform="translate(452,576)"/>
<path d="M0 0 C18 0 18 0 24 4 C28.13293135 8.78622332 28.60222787 12.4528931 28.4375 18.5 C28.44458984 19.23347656 28.45167969 19.96695313 28.45898438 20.72265625 C28.40329882 25.51161428 27.6231829 28.86106282 25 33 C16.71228818 39.52436888 11.46941652 38 0 38 C0 25.46 0 12.92 0 0 Z M4 4 C4 13.9 4 23.8 4 34 C15.25683946 35.02899151 15.25683946 35.02899151 21 31 C25.00277575 25.61695676 24.6427724 19.41891891 24 13 C22.19260415 7.57781246 21.15901576 7.09540946 16 4 C12.04 4 8.08 4 4 4 Z " fill="#143434" transform="translate(542,576)"/>
<path d="M0 0 C1.04027344 -0.01417969 2.08054687 -0.02835938 3.15234375 -0.04296875 C6.01296613 0.18357718 7.63920151 0.71016381 10.0625 2.1875 C9.7325 3.1775 9.4025 4.1675 9.0625 5.1875 C8.03769531 5.12949219 7.01289062 5.07148437 5.95703125 5.01171875 C4.59639989 4.96480043 3.23571904 4.91930248 1.875 4.875 C1.20146484 4.83310547 0.52792969 4.79121094 -0.16601562 4.74804688 C-4.15586318 4.65073352 -5.7364502 5.02295591 -8.86328125 7.58203125 C-13.2747379 13.1233525 -12.5206077 19.33792827 -11.9375 26.1875 C-10.7157819 29.48208577 -9.15242885 31.58003558 -5.9375 33.1875 C-3.9000237 33.41608114 -1.85709697 33.59774278 0.1875 33.75 C2.12625 33.894375 4.065 34.03875 6.0625 34.1875 C6.0625 29.8975 6.0625 25.6075 6.0625 21.1875 C3.4225 21.1875 0.7825 21.1875 -1.9375 21.1875 C-1.9375 20.1975 -1.9375 19.2075 -1.9375 18.1875 C2.3525 18.1875 6.6425 18.1875 11.0625 18.1875 C11.0625 23.7975 11.0625 29.4075 11.0625 35.1875 C3.89465815 38.25943222 -1.46993822 39.69787618 -9.05859375 37.6015625 C-13.5340517 35.50339082 -15.58895228 32.32106485 -17.2734375 27.8828125 C-18.97010797 20.99632646 -19.40591623 13.81358364 -15.6875 7.5625 C-11.32568924 1.70978783 -7.25163628 0.04481852 0 0 Z " fill="#173638" transform="translate(874.9375,575.8125)"/>
<path d="M0 0 C2.3984375 1.0234375 2.3984375 1.0234375 4 2 C4 2.99 4 3.98 4 5 C2.33710937 4.93039062 2.33710937 4.93039062 0.640625 4.859375 C-0.82288968 4.82184898 -2.28643356 4.78544971 -3.75 4.75 C-4.84441406 4.69972656 -4.84441406 4.69972656 -5.9609375 4.6484375 C-9.53022441 4.58354137 -11.54969144 4.65866034 -14.4375 6.84765625 C-18.21256845 12.04781304 -18.71393448 17.76929912 -18 24 C-16.86367129 28.10946273 -15.64836084 30.56775944 -12 33 C-7.98500069 33.26874159 -4.02862593 33.08663712 0 33 C0.33 29.04 0.66 25.08 1 21 C-1.97 21 -4.94 21 -8 21 C-7.67 19.68 -7.34 18.36 -7 17 C-3.04 17 0.92 17 5 17 C5 23.27 5 29.54 5 36 C-1.76624909 38.25541636 -8.00095905 39.37330736 -14.875 36.875 C-19.395409 34.1627546 -21.35406689 30.93779932 -23 26 C-24.1393753 10.08610233 -24.1393753 10.08610233 -19 4 C-13.72173052 -1.27826948 -7.02517954 -0.7805755 0 0 Z " fill="#153737" transform="translate(526,576)"/>
<path d="M0 0 C2.31 0 4.62 0 7 0 C7 10.23 7 20.46 7 31 C11.29 31 15.58 31 20 31 C21 32 21 32 21.0625 35.0625 C21.041875 36.031875 21.02125 37.00125 21 38 C17.52085059 38.02887814 14.04173169 38.04675687 10.5625 38.0625 C9.07266602 38.07506836 9.07266602 38.07506836 7.55273438 38.08789062 C6.60849609 38.09111328 5.66425781 38.09433594 4.69140625 38.09765625 C3.81685791 38.10289307 2.94230957 38.10812988 2.04125977 38.11352539 C0 38 0 38 -1 37 C-1.10095564 34.34543807 -1.13970998 31.71744824 -1.1328125 29.0625 C-1.13376923 28.267229 -1.13472595 27.47195801 -1.13571167 26.65258789 C-1.13639343 24.9679354 -1.13453943 23.28328029 -1.13037109 21.59863281 C-1.12502275 19.01100803 -1.13031619 16.42355684 -1.13671875 13.8359375 C-1.13605797 12.20312461 -1.1347768 10.57031184 -1.1328125 8.9375 C-1.13483673 8.15834229 -1.13686096 7.37918457 -1.13894653 6.57641602 C-1.11495105 1.11495105 -1.11495105 1.11495105 0 0 Z " fill="#18393A" transform="translate(798,511)"/>
<path d="M0 0 C1.47057839 0.00031709 2.94118001 0.01164091 4.41162109 0.03173828 C5.18565277 0.03456818 5.95968445 0.03739807 6.75717163 0.04031372 C9.23329016 0.05152325 11.70904909 0.07662875 14.18505859 0.10205078 C15.86213671 0.1120796 17.53922049 0.12120562 19.21630859 0.12939453 C23.33103082 0.15146504 27.44548371 0.18599977 31.56005859 0.22705078 C31.58695076 1.7061197 31.60640481 3.18532561 31.62255859 4.66455078 C31.63416016 5.48826172 31.64576172 6.31197266 31.65771484 7.16064453 C31.56005859 9.22705078 31.56005859 9.22705078 30.56005859 10.22705078 C29.08031949 10.38473712 27.59361435 10.4780879 26.10693359 10.54345703 C25.18291748 10.5855127 24.25890137 10.62756836 23.30688477 10.67089844 C22.31793213 10.71005371 21.32897949 10.74920898 20.31005859 10.78955078 C19.31401611 10.83128418 18.31797363 10.87301758 17.29174805 10.91601562 C1.03377182 11.56237736 1.03377182 11.56237736 -4.43994141 11.22705078 C-6.33483093 9.33216126 -5.62013252 6.65565933 -5.67041016 4.13720703 C-5.21627406 0.3732655 -3.51681125 0.23212452 0 0 Z " fill="#183838" transform="translate(491.43994140625,414.77294921875)"/>
<path d="M0 0 C7.26 0 14.52 0 22 0 C22 1.32 22 2.64 22 4 C16.39 4 10.78 4 5 4 C5 8.29 5 12.58 5 17 C9.95 17 14.9 17 20 17 C20 17.99 20 18.98 20 20 C15.05 20 10.1 20 5 20 C5 24.62 5 29.24 5 34 C10.61 34 16.22 34 22 34 C22 35.32 22 36.64 22 38 C18.52085059 38.02887814 15.04173169 38.04675687 11.5625 38.0625 C10.07266602 38.07506836 10.07266602 38.07506836 8.55273438 38.08789062 C7.60849609 38.09111328 6.66425781 38.09433594 5.69140625 38.09765625 C4.81685791 38.10289307 3.94230957 38.10812988 3.04125977 38.11352539 C1 38 1 38 0 37 C-0.08858646 34.26105915 -0.11523479 31.5474673 -0.09765625 28.80859375 C-0.0962413 27.98875504 -0.09482635 27.16891632 -0.09336853 26.32423401 C-0.08775289 23.69528618 -0.07519779 21.06642227 -0.0625 18.4375 C-0.05748701 16.65950643 -0.05292376 14.88151154 -0.04882812 13.10351562 C-0.03862752 8.73561842 -0.01905532 4.3679036 0 0 Z " fill="#0C3435" transform="translate(579,576)"/>
<path d="M0 0 C0.87454834 0.00523682 1.74909668 0.01047363 2.65014648 0.01586914 C3.59438477 0.0190918 4.53862305 0.02231445 5.51147461 0.02563477 C6.50469727 0.03401367 7.49791992 0.04239258 8.52124023 0.05102539 C9.51833008 0.05553711 10.51541992 0.06004883 11.54272461 0.06469727 C14.01478872 0.07652532 16.48673541 0.0930069 18.95874023 0.11352539 C18.95874023 1.43352539 18.95874023 2.75352539 18.95874023 4.11352539 C13.34874023 4.11352539 7.73874023 4.11352539 1.95874023 4.11352539 C1.95874023 8.40352539 1.95874023 12.69352539 1.95874023 17.11352539 C6.90874023 17.11352539 11.85874023 17.11352539 16.95874023 17.11352539 C16.95874023 18.10352539 16.95874023 19.09352539 16.95874023 20.11352539 C12.00874023 20.11352539 7.05874023 20.11352539 1.95874023 20.11352539 C1.95874023 24.73352539 1.95874023 29.35352539 1.95874023 34.11352539 C7.56874023 34.11352539 13.17874023 34.11352539 18.95874023 34.11352539 C18.95874023 35.43352539 18.95874023 36.75352539 18.95874023 38.11352539 C15.47959083 38.14240353 12.00047193 38.16028226 8.52124023 38.17602539 C7.03140625 38.18859375 7.03140625 38.18859375 5.51147461 38.20141602 C4.56723633 38.20463867 3.62299805 38.20786133 2.65014648 38.21118164 C1.77559814 38.21641846 0.9010498 38.22165527 0 38.22705078 C-2.04125977 38.11352539 -2.04125977 38.11352539 -3.04125977 37.11352539 C-3.14221541 34.45896346 -3.18096975 31.83097363 -3.17407227 29.17602539 C-3.17502899 28.38075439 -3.17598572 27.5854834 -3.17697144 26.76611328 C-3.1776532 25.08146079 -3.17579919 23.39680568 -3.17163086 21.7121582 C-3.16628252 19.12453342 -3.17157596 16.53708223 -3.17797852 13.94946289 C-3.17731773 12.31665001 -3.17603657 10.68383723 -3.17407227 9.05102539 C-3.1760965 8.27186768 -3.17812073 7.49270996 -3.1802063 6.68994141 C-3.15158347 0.17527644 -3.15158347 0.17527644 0 0 Z " fill="#1E4141" transform="translate(395.041259765625,575.886474609375)"/>
<path d="M0 0 C6.93 0 13.86 0 21 0 C21 1.32 21 2.64 21 4 C15.72 4 10.44 4 5 4 C5 8.29 5 12.58 5 17 C9.95 17 14.9 17 20 17 C20 17.99 20 18.98 20 20 C15.05 20 10.1 20 5 20 C5 24.62 5 29.24 5 34 C10.28 34 15.56 34 21 34 C21 35.32 21 36.64 21 38 C14.07 38 7.14 38 0 38 C0 25.46 0 12.92 0 0 Z " fill="#183D3C" transform="translate(896,576)"/>
<path d="M0 0 C6.93 0 13.86 0 21 0 C21 1.32 21 2.64 21 4 C15.72 4 10.44 4 5 4 C5 8.29 5 12.58 5 17 C9.95 17 14.9 17 20 17 C20 17.99 20 18.98 20 20 C15.05 20 10.1 20 5 20 C5 24.62 5 29.24 5 34 C10.28 34 15.56 34 21 34 C21 35.32 21 36.64 21 38 C14.07 38 7.14 38 0 38 C0 25.46 0 12.92 0 0 Z " fill="#1D3D3D" transform="translate(422,576)"/>
<path d="M0 0 C3.43601543 3.43601543 4.48909962 8.24115797 6.125 12.75 C6.68380859 14.235 6.68380859 14.235 7.25390625 15.75 C7.60582031 16.71421875 7.95773437 17.6784375 8.3203125 18.671875 C8.64273926 19.5494043 8.96516602 20.42693359 9.29736328 21.33105469 C10 24 10 24 10 30 C3.4 30 -3.2 30 -10 30 C-8.87440918 22.12086428 -8.87440918 22.12086428 -7.44140625 18.30078125 C-7.13783203 17.48416016 -6.83425781 16.66753906 -6.52148438 15.82617188 C-6.20501953 14.99666016 -5.88855469 14.16714844 -5.5625 13.3125 C-5.09360352 12.05083008 -5.09360352 12.05083008 -4.61523438 10.76367188 C-3.23099919 7.07335355 -1.81066113 3.50515918 0 0 Z " fill="#EEE8D9" transform="translate(392,390)"/>
<path d="M0 0 C6.93 0 13.86 0 21 0 C21 1.32 21 2.64 21 4 C15.39 4 9.78 4 4 4 C4 8.29 4 12.58 4 17 C8.95 17 13.9 17 19 17 C19 17.99 19 18.98 19 20 C14.05 20 9.1 20 4 20 C4 24.62 4 29.24 4 34 C9.61 34 15.22 34 21 34 C21 35.32 21 36.64 21 38 C14.07 38 7.14 38 0 38 C0 25.46 0 12.92 0 0 Z " fill="#0E2F30" transform="translate(656,576)"/>
<path d="M0 0 C10 0 10 0 13.125 2.3125 C16.09478351 6.74611297 15.71089163 11.90275572 15 17 C12.89361702 22.55319149 12.89361702 22.55319149 10 24 C6.7 24 3.4 24 0 24 C0 16.08 0 8.16 0 0 Z " fill="#EFE8D8" transform="translate(905,518)"/>
<path d="M0 0 C10 0 10 0 13.125 2.25 C16.25677849 6.94766774 15.87970745 12.63378455 15 18 C13.77915696 21.29627619 13.02860314 21.81940574 10 24 C6.7 24 3.4 24 0 24 C0 16.08 0 8.16 0 0 Z " fill="#EEE8D7" transform="translate(704,518)"/>
<path d="M0 0 C3.9760803 -0.46233492 5.56851204 -0.30954571 8.875 2.0625 C11.52580508 5.72684819 11.64496629 7.56585675 11 12 C9.625 14.4375 9.625 14.4375 8 16 C7.34 16 6.68 16 6 16 C6 16.66 6 17.32 6 18 C6.598125 18.0825 7.19625 18.165 7.8125 18.25 C10.76224781 19.26134211 11.54953762 20.24412147 13 23 C13.52320903 27.11092805 13.45925779 29.23457035 11.3125 32.8125 C6.75851388 37.12032471 2.22700492 37.27526519 -3.8125 37.125 C-4.85180664 37.11146484 -4.85180664 37.11146484 -5.91210938 37.09765625 C-7.60822395 37.07426157 -9.30415871 37.03839641 -11 37 C-11.09945415 30.88909517 -11.0712828 25.02596573 -10 19 C-9.34 19.33 -8.68 19.66 -8 20 C-8 24.29 -8 28.58 -8 33 C-6.081875 32.87625 -4.16375 32.7525 -2.1875 32.625 C-1.10855469 32.55539062 -0.02960938 32.48578125 1.08203125 32.4140625 C4.18626186 32.18804267 4.18626186 32.18804267 7 30 C7.58342353 26.54230809 7.58342353 26.54230809 7 23 C4.1073919 20.14064027 1.74097035 19.57506384 -2.25 19.3125 C-3.14203125 19.24675781 -4.0340625 19.18101562 -4.953125 19.11328125 C-5.62859375 19.07589844 -6.3040625 19.03851562 -7 19 C-7 18.01 -7 17.02 -7 16 C-6.38511719 15.96261719 -5.77023437 15.92523437 -5.13671875 15.88671875 C-3.92435547 15.78810547 -3.92435547 15.78810547 -2.6875 15.6875 C-1.88699219 15.62949219 -1.08648437 15.57148437 -0.26171875 15.51171875 C2.42904349 14.90292799 3.39296613 14.22512381 5 12 C5.2503577 8.37464024 5.2503577 8.37464024 5 5 C2.56612247 3.78306124 0.58161154 3.68040104 -2.125 3.4375 C-3.03507812 3.35371094 -3.94515625 3.26992188 -4.8828125 3.18359375 C-5.58148438 3.12300781 -6.28015625 3.06242188 -7 3 C-7 2.67 -7 2.34 -7 2 C-3.535 1.505 -3.535 1.505 0 1 C0 0.67 0 0.34 0 0 Z " fill="#1C4143" transform="translate(372,577)"/>
<path d="M0 0 C2.475 0.495 2.475 0.495 5 1 C8.3 10.9 11.6 20.8 15 31 C17.05484481 27.91773278 18.01096153 25.30950277 19.1640625 21.80078125 C19.56367187 20.59228516 19.96328125 19.38378906 20.375 18.13867188 C20.79176459 16.86331325 21.20843 15.5879222 21.625 14.3125 C22.04906447 13.02525393 22.47353902 11.73814289 22.8984375 10.45117188 C23.93633792 7.30208763 24.97001437 4.15168007 26 1 C27.65 0.67 29.3 0.34 31 0 C30.37453682 4.62736741 29.15184095 8.70345948 27.53125 13.078125 C27.29088013 13.73077332 27.05051025 14.38342163 26.80285645 15.05584717 C26.04019413 17.12243798 25.27008093 19.18616382 24.5 21.25 C23.98261076 22.65087106 23.46567919 24.05191125 22.94921875 25.453125 C19.18910274 35.62179453 19.18910274 35.62179453 18 38 C16.35 38 14.7 38 13 38 C9.40161539 28.89757738 5.85482564 19.78081068 2.5625 10.5625 C2.30388184 9.84779541 2.04526367 9.13309082 1.77880859 8.39672852 C0.743034 5.46298041 0 3.13597248 0 0 Z " fill="#1A3839" transform="translate(618,576)"/>
<path d="M0 0 C2.31 0 4.62 0 7 0 C8 1 8 1 8.11352539 4.51000977 C8.11336626 6.07048422 8.10767142 7.63096393 8.09765625 9.19140625 C8.0962413 10.01124496 8.09482635 10.83108368 8.09336853 11.67576599 C8.08775289 14.30471382 8.07519779 16.93357773 8.0625 19.5625 C8.05748701 21.34049357 8.05292376 23.11848846 8.04882812 24.89648438 C8.03777839 29.26435545 8.02050331 33.63216348 8 38 C5.36 38 2.72 38 0 38 C0 25.46 0 12.92 0 0 Z " fill="#1D3F3F" transform="translate(492,511)"/>
<path d="M0 0 C1.78933876 1.78933876 1.25643059 4.3301621 1.3125 6.75 C1.28818172 10.8403345 1.23130726 12.60677766 -0.875 16.1875 C-4.4928509 19.27331401 -7.17125948 19.34798696 -11.80078125 19.2734375 C-14 19 -14 19 -16.5625 17.4375 C-18.59892975 13.98442348 -18.61317083 11.95154536 -18 8 C-13.06259052 0.52335135 -8.42967927 -0.42148396 0 0 Z " fill="#EAE4D4" transform="translate(646,427)"/>
<path d="M0 0 C1.86251681 1.86251681 1.30214039 4.7503549 1.375 7.25 C1.31884493 11.51310589 1.24931955 13.55953546 -0.875 17.3125 C-5.17130818 19.63250642 -9.20776116 19.97469264 -14 19 C-16.19265262 17.44485871 -16.87819079 16.542051 -17.46875 13.9140625 C-17.52804617 9.57061833 -17.47443313 7.61939881 -14.75 4.0625 C-9.48846435 0.11634826 -6.54436474 -0.321854 0 0 Z " fill="#EDE7D6" transform="translate(777,427)"/>
<path d="M0 0 C1.86251681 1.86251681 1.30214039 4.7503549 1.375 7.25 C1.31884493 11.51310589 1.24931955 13.55953546 -0.875 17.3125 C-5.17130818 19.63250642 -9.20776116 19.97469264 -14 19 C-16.15520279 17.45988827 -16.86507848 16.5132884 -17.5390625 13.94921875 C-17.76647694 7.96408427 -17.76647694 7.96408427 -15.5 5.11328125 C-10.16230996 0.52064378 -6.9617995 -0.22100951 0 0 Z " fill="#EEE7D6" transform="translate(842,427)"/>
<path d="M0 0 C8.25 0 16.5 0 25 0 C25 3.63 25 7.26 25 11 C16.75 11 8.5 11 0 11 C0 7.37 0 3.74 0 0 Z " fill="#EBE9DF" transform="translate(192,512)"/>
<path d="M0 0 C9.24 0 18.48 0 28 0 C27.67 1.32 27.34 2.64 27 4 C23.37 4 19.74 4 16 4 C16 15.22 16 26.44 16 38 C14.68 38 13.36 38 12 38 C12 26.78 12 15.56 12 4 C8.04 4 4.08 4 0 4 C0 2.68 0 1.36 0 0 Z " fill="#0F3433" transform="translate(714,576)"/>
<path d="M0 0 C0.33 0 0.66 0 1 0 C1.33 38.61 1.66 77.22 2 117 C0.515 117.495 0.515 117.495 -1 118 C-1.02332961 102.76236936 -1.04097948 87.52473954 -1.05181217 72.28709507 C-1.056975 65.21246813 -1.06401744 58.13785226 -1.07543945 51.06323242 C-1.08644681 44.24221122 -1.09227618 37.42120156 -1.09487724 30.60017204 C-1.09673205 27.99133052 -1.1003537 25.38248967 -1.10573006 22.77365303 C-1.11293643 19.13367448 -1.11399111 15.49374425 -1.11352539 11.85375977 C-1.11712067 10.76331863 -1.12071594 9.6728775 -1.12442017 8.5493927 C-1.1230455 7.56356201 -1.12167084 6.57773132 -1.12025452 5.56202698 C-1.12117631 4.70015054 -1.1220981 3.8382741 -1.12304783 2.95028019 C-1 1 -1 1 0 0 Z " fill="#E9EAE2" transform="translate(199,390)"/>
<path d="M0 0 C1.32 0 2.64 0 4 0 C4 11.22 4 22.44 4 34 C9.28 34 14.56 34 20 34 C20 35.32 20 36.64 20 38 C13.4 38 6.8 38 0 38 C0 25.46 0 12.92 0 0 Z " fill="#113737" transform="translate(779,576)"/>
<path d="M0 0 C2.64 0.66 5.28 1.32 8 2 C8 2.33 8 2.66 8 3 C6.35 3 4.7 3 3 3 C2.67 35.01 2.34 67.02 2 100 C1.34 100 0.68 100 0 100 C0 67 0 34 0 0 Z " fill="#233B3D" transform="translate(136,424)"/>
<path d="M0 0 C11.46693984 -0.36990129 11.46693984 -0.36990129 13.86328125 1.29296875 C15.77103468 4.15787682 15.35598841 6.67744148 15 10 C13.86328125 11.70703125 13.86328125 11.70703125 12 13 C7.96740923 13.40487859 4.06287095 13.13106035 0 13 C0 8.71 0 4.42 0 0 Z " fill="#EFE9D8" transform="translate(690,580)"/>
<path d="M0 0 C11.46800782 -0.36993574 11.46800782 -0.36993574 13.859375 1.29296875 C15.79602367 4.1913094 15.41980773 6.64153818 15 10 C12.74494167 12.30787 11.43027538 12.95492925 8.203125 13.29296875 C5.46875 13.1953125 2.734375 13.09765625 0 13 C0 8.71 0 4.42 0 0 Z " fill="#EFEBDC" transform="translate(365,597)"/>
<path d="M0 0 C1.65322266 0.01740234 1.65322266 0.01740234 3.33984375 0.03515625 C4.99693359 0.04869141 4.99693359 0.04869141 6.6875 0.0625 C7.54214844 0.07410156 8.39679687 0.08570313 9.27734375 0.09765625 C9.27734375 0.42765625 9.27734375 0.75765625 9.27734375 1.09765625 C5.64734375 1.09765625 2.01734375 1.09765625 -1.72265625 1.09765625 C-1.72265625 6.37765625 -1.72265625 11.65765625 -1.72265625 17.09765625 C-1.06265625 17.09765625 -0.40265625 17.09765625 0.27734375 17.09765625 C0.27734375 12.80765625 0.27734375 8.51765625 0.27734375 4.09765625 C0.60734375 4.09765625 0.93734375 4.09765625 1.27734375 4.09765625 C1.27734375 8.38765625 1.27734375 12.67765625 1.27734375 17.09765625 C4.24734375 17.09765625 7.21734375 17.09765625 10.27734375 17.09765625 C9.94734375 18.08765625 9.61734375 19.07765625 9.27734375 20.09765625 C6.63734375 20.09765625 3.99734375 20.09765625 1.27734375 20.09765625 C1.27734375 26.03765625 1.27734375 31.97765625 1.27734375 38.09765625 C-0.37265625 38.09765625 -2.02265625 38.09765625 -3.72265625 38.09765625 C-3.74730553 32.84660183 -3.76549193 27.5955808 -3.77758789 22.34448242 C-3.78262843 20.55671604 -3.78946079 18.7689538 -3.7980957 16.98120117 C-3.81017355 14.41714457 -3.81588719 11.85314228 -3.8203125 9.2890625 C-3.82547379 8.48489395 -3.83063507 7.6807254 -3.83595276 6.85218811 C-3.8361484 4.9336391 -3.78467608 3.01520257 -3.72265625 1.09765625 C-2.72265625 0.09765625 -2.72265625 0.09765625 0 0 Z " fill="#304E4B" transform="translate(688.72265625,575.90234375)"/>
<path d="M0 0 C1.5078125 1.3359375 1.5078125 1.3359375 3 3 C2.75226028 8.20253405 0.70122097 13.11823548 -1 18 C2.96 18 6.92 18 11 18 C11 18.66 11 19.32 11 20 C11.99 20.33 12.98 20.66 14 21 C8.39 21 2.78 21 -3 21 C-3.66 23.64 -4.32 26.28 -5 29 C-5.33 29.66 -5.66 30.32 -6 31 C-7.32 31 -8.64 31 -10 31 C-9.4532325 24.07096458 -6.93348067 18.00312392 -4.4375 11.5625 C-4.01275391 10.44939453 -3.58800781 9.33628906 -3.15039062 8.18945312 C-2.10669884 5.45709149 -1.05641767 2.72746098 0 0 Z " fill="#143939" transform="translate(751,583)"/>
<path d="M0 0 C1.32 0 2.64 0 4 0 C4 12.54 4 25.08 4 38 C2.68 38 1.36 38 0 38 C0 25.46 0 12.92 0 0 Z " fill="#0F292A" transform="translate(490,576)"/>
<path d="M0 0 C1.32 0 2.64 0 4 0 C4 12.54 4 25.08 4 38 C2.68 38 1.36 38 0 38 C0 25.46 0 12.92 0 0 Z " fill="#0F3737" transform="translate(805,576)"/>
<path d="M0 0 C5.94 0 11.88 0 18 0 C18.33 0.66 18.66 1.32 19 2 C13.77294503 3.39388132 9.82152988 3 4 3 C4.33 13.89 4.66 24.78 5 36 C3.68 36 2.36 36 1 36 C0.67 24.12 0.34 12.24 0 0 Z " fill="#153D3D" transform="translate(542,576)"/>
<path d="M0 0 C9.625 -0.25 9.625 -0.25 13 2 C13.66079024 8.05724389 13.66079024 8.05724389 11.80078125 10.7109375 C9.37003001 12.45095465 7.76927755 12.30269913 4.8125 12.1875 C3.224375 12.125625 1.63625 12.06375 0 12 C0 8.04 0 4.08 0 0 Z " fill="#F1ECDC" transform="translate(365,580)"/>
<path d="M0 0 C7.26 0 14.52 0 22 0 C22 1.32 22 2.64 22 4 C16.39 4 10.78 4 5 4 C5 8.29 5 12.58 5 17 C4.67 17 4.34 17 4 17 C4 13.7 4 10.4 4 7 C3.34 7 2.68 7 2 7 C1.67 16.9 1.34 26.8 1 37 C0.67 37 0.34 37 0 37 C0 24.79 0 12.58 0 0 Z " fill="#2D4643" transform="translate(579,576)"/>
<path d="M0 0 C3 0.125 3 0.125 4 1.125 C3.9140625 3.15625 3.9140625 3.15625 3.625 5.625 C3.53476563 6.4396875 3.44453125 7.254375 3.3515625 8.09375 C3 10.125 3 10.125 2 11.125 C1.84141158 13.26886657 1.74870702 15.41766838 1.68359375 17.56640625 C1.64169922 18.87158203 1.59980469 20.17675781 1.55664062 21.52148438 C1.51682392 22.9101533 1.47711175 24.29882522 1.4375 25.6875 C1.39432011 27.08009183 1.350706 28.47267028 1.30664062 29.86523438 C1.20014124 33.28504801 1.09813077 36.70493763 1 40.125 C0.01 40.62 0.01 40.62 -1 41.125 C-1.01981934 40.2371582 -1.03963867 39.34931641 -1.06005859 38.43457031 C-1.13828232 35.13188666 -1.22497885 31.82964936 -1.31738281 28.52734375 C-1.35560024 27.09969602 -1.39046572 25.67195437 -1.421875 24.24414062 C-1.46768401 22.18846132 -1.5256498 20.13342446 -1.5859375 18.078125 C-1.6173584 16.84223633 -1.6487793 15.60634766 -1.68115234 14.33300781 C-1.98289815 11.29706605 -2.54560161 9.72836592 -4 7.125 C-4.1875 3.9375 -4.1875 3.9375 -4 1.125 C-3 0.125 -3 0.125 0 0 Z " fill="#071112" transform="translate(205,557.875)"/>
<path d="M0 0 C2.14642449 3.21963674 3.35881354 6.44429859 4.625 10.0625 C4.85445312 10.69994141 5.08390625 11.33738281 5.3203125 11.99414062 C7 16.738258 7 16.738258 7 19 C2.71 19 -1.58 19 -6 19 C-4.51708173 12.45044429 -2.37688265 6.27681633 0 0 Z " fill="#E7E1D1" transform="translate(756,581)"/>
<path d="M0 0 C0.66 0.33 1.32 0.66 2 1 C2.48709072 9.87587526 2.47974447 16.6865253 -3.40625 23.66796875 C-5.95401522 25.79735095 -8.78257381 25.69646923 -12 26 C-12 25.67 -12 25.34 -12 25 C-15.63 24.67 -19.26 24.34 -23 24 C-23 23.67 -23 23.34 -23 23 C-21.67935547 22.97873047 -21.67935547 22.97873047 -20.33203125 22.95703125 C-13.2888651 22.71521477 -13.2888651 22.71521477 -6.8125 20.25 C-3.97209166 15.15685402 -3.56358435 9.74519564 -3 4 C-2.34 4.33 -1.68 4.66 -1 5 C-0.67 3.35 -0.34 1.7 0 0 Z " fill="#153436" transform="translate(479,587)"/>
<path d="M0 0 C2.54288638 3.5446295 2.48106088 5.605679 2.0625 9.875 C1.0725 9.545 0.0825 9.215 -0.9375 8.875 C-1.02 8.09125 -1.1025 7.3075 -1.1875 6.5 C-1.65389112 3.81726469 -1.65389112 3.81726469 -3.5625 2.75 C-6.62854479 1.62040455 -9.43005486 1.44544671 -12.6875 1.25 C-14.75 1.12625 -16.8125 1.0025 -18.9375 0.875 C-18.9375 5.165 -18.9375 9.455 -18.9375 13.875 C-19.5975 13.875 -20.2575 13.875 -20.9375 13.875 C-20.9375 8.595 -20.9375 3.315 -20.9375 -2.125 C-5.33410057 -3.85871105 -5.33410057 -3.85871105 0 0 Z " fill="#183836" transform="translate(707.9375,579.125)"/>
<path d="M0 0 C1.13308594 -0.00515625 2.26617188 -0.0103125 3.43359375 -0.015625 C6.39775691 0.23601432 8.06563671 0.70403059 10.5625 2.25 C10.5625 3.24 10.5625 4.23 10.5625 5.25 C8.89960937 5.18039062 8.89960937 5.18039062 7.203125 5.109375 C5.73961032 5.07184898 4.27606644 5.03544971 2.8125 5 C1.71808594 4.94972656 1.71808594 4.94972656 0.6015625 4.8984375 C-3.00227804 4.83291313 -4.99146072 4.90623724 -7.890625 7.140625 C-9.46291978 9.1605925 -9.46291978 9.1605925 -10.4375 11.25 C-11.4275 11.25 -12.4175 11.25 -13.4375 11.25 C-13.7675 11.91 -14.0975 12.57 -14.4375 13.25 C-15.0975 13.25 -15.7575 13.25 -16.4375 13.25 C-14.22582722 4.60437005 -8.86358377 -0.04024329 0 0 Z " fill="#274343" transform="translate(519.4375,575.75)"/>
<path d="M0 0 C0.33 0 0.66 0 1 0 C1 4.62 1 9.24 1 14 C6.61 14 12.22 14 18 14 C18 15.32 18 16.64 18 18 C11.4 18 4.8 18 -2 18 C-2.16065899 11.49331109 -2.18189809 6.13658838 0 0 Z " fill="#173939" transform="translate(583,596)"/>
<path d="M0 0 C0.33 0 0.66 0 1 0 C1 11.55 1 23.1 1 35 C2.32 35 3.64 35 5 35 C5 34.34 5 33.68 5 33 C10.28 33 15.56 33 21 33 C21 34.32 21 35.64 21 37 C14.07 37 7.14 37 0 37 C0 24.79 0 12.58 0 0 Z " fill="#102525" transform="translate(422,577)"/>
<path d="M0 0 C0.33 0 0.66 0 1 0 C1 11.55 1 23.1 1 35 C1.99 34.34 2.98 33.68 4 33 C6.7421875 32.76953125 6.7421875 32.76953125 9.875 32.8125 C11.41800781 32.82216797 11.41800781 32.82216797 12.9921875 32.83203125 C15.76239292 32.98673103 18.30088817 33.37751111 21 34 C19 36 19 36 15 37 C10.05 37 5.1 37 0 37 C0 24.79 0 12.58 0 0 Z " fill="#0D3133" transform="translate(542,577)"/>
<path d="M0 0 C6.0546875 -0.1953125 6.0546875 -0.1953125 8 0 C10 2 10 2 10.25 5 C10 8 10 8 8 10 C5.31160615 10.26991906 2.70858064 10.08737357 0 10 C0 6.7 0 3.4 0 0 Z " fill="#E8E2D2" transform="translate(400,518)"/>
<path d="M0 0 C6.93 0 13.86 0 21 0 C21 1.32 21 2.64 21 4 C15.06 4 9.12 4 3 4 C3 7.96 3 11.92 3 16 C2.67 16 2.34 16 2 16 C1.93941406 15.18015625 1.87882812 14.3603125 1.81640625 13.515625 C1.73261719 12.43796875 1.64882813 11.3603125 1.5625 10.25 C1.48128906 9.18265625 1.40007812 8.1153125 1.31640625 7.015625 C1.05086124 3.8068415 1.05086124 3.8068415 0 0 Z " fill="#133434" transform="translate(393,576)"/>
<path d="M0 0 C6.0546875 -0.1953125 6.0546875 -0.1953125 8 0 C8.66 0.66 9.32 1.32 10 2 C9.75 5.5625 9.75 5.5625 9 9 C6.04335481 10.4783226 3.25770263 10.06032783 0 10 C0 6.7 0 3.4 0 0 Z " fill="#EAE4D4" transform="translate(772,518)"/>
<path d="M0 0 C7.37042925 -0.36248013 7.37042925 -0.36248013 10.0625 1.1875 C11.3945522 3.76280093 10.85352401 5.29717396 10 8 C9 9 9 9 6.93359375 9.09765625 C3.46679688 9.04882812 3.46679688 9.04882812 0 9 C0 6.03 0 3.06 0 0 Z " fill="#E5DFCF" transform="translate(467,533)"/>
<path d="M0 0 C1.859375 0.1328125 1.859375 0.1328125 4 1 C5.265625 3.6171875 5.265625 3.6171875 6.25 6.875 C6.58515625 7.94492187 6.9203125 9.01484375 7.265625 10.1171875 C8 13 8 13 8 16 C6.68 16 5.36 16 4 16 C1 9.5 1 9.5 1 5 C0.01 5 -0.98 5 -2 5 C-2 4.34 -2 3.68 -2 3 C-5.96 3 -9.92 3 -14 3 C-14 2.67 -14 2.34 -14 2 C-9.38 2 -4.76 2 0 2 C0 1.34 0 0.68 0 0 Z " fill="#2E4846" transform="translate(764,598)"/>
<path d="M0 0 C1.65322266 0.01740234 1.65322266 0.01740234 3.33984375 0.03515625 C4.99693359 0.04869141 4.99693359 0.04869141 6.6875 0.0625 C7.54214844 0.07410156 8.39679687 0.08570313 9.27734375 0.09765625 C9.27734375 2.07765625 9.27734375 4.05765625 9.27734375 6.09765625 C5.31734375 6.09765625 1.35734375 6.09765625 -2.72265625 6.09765625 C-3.05265625 4.44765625 -3.38265625 2.79765625 -3.72265625 1.09765625 C-2.72265625 0.09765625 -2.72265625 0.09765625 0 0 Z " fill="#223C3D" transform="translate(610.72265625,531.90234375)"/>
<path d="M0 0 C2 3 2 3 1.76806641 4.90112305 C1.54812012 5.59761963 1.32817383 6.29411621 1.1015625 7.01171875 C0.86953125 7.76904297 0.6375 8.52636719 0.3984375 9.30664062 C0.14320313 10.09232422 -0.11203125 10.87800781 -0.375 11.6875 C-0.6225 12.48478516 -0.87 13.28207031 -1.125 14.10351562 C-1.73816955 16.07273321 -2.36755921 18.0368868 -3 20 C-5 18 -5 18 -5.265625 15.1015625 C-5.26046875 13.95429687 -5.2553125 12.80703125 -5.25 11.625 C-5.25515625 10.48289062 -5.2603125 9.34078125 -5.265625 8.1640625 C-5.01257729 5.14981771 -4.73949833 3.44689432 -3 1 C-2.01 0.67 -1.02 0.34 0 0 Z " fill="#264645" transform="translate(862,583)"/>
<path d="M0 0 C6.15234375 -0.09765625 6.15234375 -0.09765625 8 0 C9 1 9 1 9.125 4 C9 7 9 7 8 8 C5.32941149 8.14115161 2.67567762 8.04247107 0 8 C0 5.36 0 2.72 0 0 Z " fill="#E6E0D0" transform="translate(467,518)"/>
<path d="M0 0 C5.61 0 11.22 0 17 0 C17 1.32 17 2.64 17 4 C10.73 4 4.46 4 -2 4 C-1.34 2.68 -0.68 1.36 0 0 Z " fill="#173738" transform="translate(660,610)"/>
<path d="M0 0 C2.00993705 3.01490557 2.72623341 5.2149927 3.625 8.6875 C3.88539063 9.68136719 4.14578125 10.67523437 4.4140625 11.69921875 C4.60742188 12.45847656 4.80078125 13.21773437 5 14 C2.03 14 -0.94 14 -4 14 C-3.52372025 12.04096255 -3.04388577 10.08278903 -2.5625 8.125 C-2.29566406 7.03445313 -2.02882813 5.94390625 -1.75390625 4.8203125 C-1 2 -1 2 0 0 Z " fill="#D5D2C2" transform="translate(371,521)"/>
<path d="M0 0 C0.66 0.33 1.32 0.66 2 1 C2 9.91 2 18.82 2 28 C1.34 28 0.68 28 0 28 C-0.66 24.37 -1.32 20.74 -2 17 C-1.34 17 -0.68 17 0 17 C0 11.39 0 5.78 0 0 Z " fill="#E0E3DD" transform="translate(202,571)"/>
<path d="M0 0 C2.57146057 2.57146057 2.80117997 4.6050417 3.625 8.125 C3.88539063 9.22070312 4.14578125 10.31640625 4.4140625 11.4453125 C4.70410156 12.70988281 4.70410156 12.70988281 5 14 C2.03 14 -0.94 14 -4 14 C-3.52188823 12.22888156 -3.0424722 10.45811517 -2.5625 8.6875 C-2.29566406 7.70136719 -2.02882813 6.71523438 -1.75390625 5.69921875 C-1.21920575 3.78482474 -0.62855462 1.88566385 0 0 Z " fill="#D8D4C5" transform="translate(836,521)"/>
<path d="M0 0 C1.32 0 2.64 0 4 0 C4.86555948 2.09950586 5.71711277 4.2047907 6.5625 6.3125 C7.03816406 7.48425781 7.51382813 8.65601563 8.00390625 9.86328125 C9 13 9 13 8 16 C8 15.34 8 14.68 8 14 C7.34 14 6.68 14 6 14 C5.67 14.66 5.34 15.32 5 16 C4.1605118 13.89828133 3.32860344 11.79353375 2.5 9.6875 C2.0359375 8.51574219 1.571875 7.34398437 1.09375 6.13671875 C0 3 0 3 0 0 Z " fill="#214040" transform="translate(758,584)"/>
<path d="M0 0 C4.01686987 -0.46707789 5.56501812 -0.32150834 8.875 2.125 C11.32150834 5.43498188 11.46707789 6.98313013 11 11 C9.68 11.33 8.36 11.66 7 12 C6.71125 10.865625 6.4225 9.73125 6.125 8.5625 C5.75375 7.386875 5.3825 6.21125 5 5 C2.56612247 3.78306124 0.58161154 3.68040104 -2.125 3.4375 C-3.03507812 3.35371094 -3.94515625 3.26992188 -4.8828125 3.18359375 C-5.58148438 3.12300781 -6.28015625 3.06242188 -7 3 C-7 2.67 -7 2.34 -7 2 C-3.535 1.505 -3.535 1.505 0 1 C0 0.67 0 0.34 0 0 Z " fill="#0F2B2D" transform="translate(372,577)"/>
<path d="M0 0 C2.00993705 3.01490557 2.72623341 5.2149927 3.625 8.6875 C3.88539063 9.68136719 4.14578125 10.67523437 4.4140625 11.69921875 C4.60742188 12.45847656 4.80078125 13.21773437 5 14 C2.03 14 -0.94 14 -4 14 C-3.52188823 12.22888156 -3.0424722 10.45811517 -2.5625 8.6875 C-2.29566406 7.70136719 -2.02882813 6.71523438 -1.75390625 5.69921875 C-1.21920575 3.78482474 -0.62855462 1.88566385 0 0 Z " fill="#DAD6C6" transform="translate(438,521)"/>
<path d="M0 0 C0.33 0 0.66 0 1 0 C1 3.96 1 7.92 1 12 C3.97 12 6.94 12 10 12 C10 12.33 10 12.66 10 13 C7.03 13 4.06 13 1 13 C1 13.99 1 14.98 1 16 C4.3 16 7.6 16 11 16 C11 16.33 11 16.66 11 17 C7.7 17 4.4 17 1 17 C1 21.29 1 25.58 1 30 C0.67 30 0.34 30 0 30 C-0.06058594 29.11957031 -0.12117188 28.23914063 -0.18359375 27.33203125 C-0.26738281 26.17058594 -0.35117187 25.00914062 -0.4375 23.8125 C-0.51871094 22.66394531 -0.59992188 21.51539063 -0.68359375 20.33203125 C-0.95403812 17.48401829 -1.37521747 14.78789518 -2 12 C-1.34 12 -0.68 12 0 12 C0 8.04 0 4.08 0 0 Z " fill="#727E78" transform="translate(364,580)"/>
<path d="M0 0 C5.28 0 10.56 0 16 0 C16 1.32 16 2.64 16 4 C9.4 4 2.8 4 -4 4 C-4 3.34 -4 2.68 -4 2 C-0.04 2 3.92 2 8 2 C5.36 1.67 2.72 1.34 0 1 C0 0.67 0 0.34 0 0 Z " fill="#173335" transform="translate(901,610)"/>
<path d="M0 0 C1.32 0.33 2.64 0.66 4 1 C3.65198447 3.57531492 3.29035995 5.54832896 1.875 7.75 C-0.91738772 9.61159182 -3.71073498 9.68969198 -7 10 C-7 9.01 -7 8.02 -7 7 C-6.401875 6.773125 -5.80375 6.54625 -5.1875 6.3125 C-2.43648112 4.66188867 -1.47515363 2.8027919 0 0 Z " fill="#1E3C3B" transform="translate(565,602)"/>
<path d="M0 0 C-0.33 0.99 -0.66 1.98 -1 3 C-5.95 2.67 -10.9 2.34 -16 2 C-15.34 1.67 -14.68 1.34 -14 1 C-14 0.34 -14 -0.32 -14 -1 C-8.82915258 -1.91250249 -4.77999789 -2.38999895 0 0 Z " fill="#2D4546" transform="translate(885,578)"/>
<path d="M0 0 C0.33 0 0.66 0 1 0 C1.04898438 0.84304688 1.09796875 1.68609375 1.1484375 2.5546875 C1.22320312 3.65039062 1.29796875 4.74609375 1.375 5.875 C1.44460937 6.96554687 1.51421875 8.05609375 1.5859375 9.1796875 C1.73253491 12.13046474 1.73253491 12.13046474 4 14 C3.72016345 19.03705788 3.10947117 20.85403844 0 25 C0 16.75 0 8.5 0 0 Z " fill="#F4F3EA" transform="translate(219,457)"/>
<path d="M0 0 C0.66 0.33 1.32 0.66 2 1 C2.05386629 3.12472576 2.09273071 5.24983652 2.125 7.375 C2.14820313 8.55835938 2.17140625 9.74171875 2.1953125 10.9609375 C2 14 2 14 0 16 C-0.66 15.01 -1.32 14.02 -2 13 C-2.33 12.67 -2.66 12.34 -3 12 C-3.14115161 9.32941149 -3.04247107 6.67567762 -3 4 C-2.01 4.495 -2.01 4.495 -1 5 C-0.67 3.35 -0.34 1.7 0 0 Z " fill="#334B49" transform="translate(479,587)"/>
<path d="M0 0 C0.33 0 0.66 0 1 0 C1.33 6.27 1.66 12.54 2 19 C2.33 19 2.66 19 3 19 C2.88590407 20.45922693 2.75834456 21.91740598 2.625 23.375 C2.55539063 24.18710937 2.48578125 24.99921875 2.4140625 25.8359375 C2 28 2 28 0 30 C0 20.1 0 10.2 0 0 Z " fill="#CFD3D3" transform="translate(206,569)"/>
<path d="M0 0 C3.16115776 1.36983503 3.9927092 1.9890638 6 5 C6.07905064 7.33199388 6.08798769 9.66832622 6 12 C5.01 11.67 4.02 11.34 3 11 C2.67 9.35 2.34 7.7 2 6 C1.34 6 0.68 6 0 6 C-0.38218767 4.34385343 -0.71395102 2.67542976 -1 1 C-0.67 0.67 -0.34 0.34 0 0 Z " fill="#264844" transform="translate(704,577)"/>
<path d="M0 0 C1.41623216 -0.05447047 2.83308191 -0.09300508 4.25 -0.125 C5.03890625 -0.14820313 5.8278125 -0.17140625 6.640625 -0.1953125 C9.20731941 0.0171622 10.7916067 0.71345895 13 2 C13 2.99 13 3.98 13 5 C8.428721 4.45144652 4.32564205 3.58255197 0 2 C0 1.34 0 0.68 0 0 Z " fill="#0A2630" transform="translate(517,576)"/>
<path d="M0 0 C3.89985574 4.15984612 4.89169747 7.55084591 6 13 C5.34 13 4.68 13 4 13 C2.4921875 11.03125 2.4921875 11.03125 0.875 8.5 C0.33617187 7.6646875 -0.20265625 6.829375 -0.7578125 5.96875 C-1.16773438 5.3190625 -1.57765625 4.669375 -2 4 C-1.34 4 -0.68 4 0 4 C0 2.68 0 1.36 0 0 Z " fill="#DCDDDA" transform="translate(182,578)"/>
<path d="M0 0 C2.31243792 -0.02685412 4.6249627 -0.04632841 6.9375 -0.0625 C8.22527344 -0.07410156 9.51304687 -0.08570313 10.83984375 -0.09765625 C14 0 14 0 15 1 C15.04063832 2.66617115 15.042721 4.33388095 15 6 C14.34 6 13.68 6 13 6 C13 4.68 13 3.36 13 2 C8.71 2 4.42 2 0 2 C0 1.34 0 0.68 0 0 Z " fill="#2D4C49" transform="translate(742,542)"/>
<path d="M0 0 C0.66 0 1.32 0 2 0 C2.042721 1.66611905 2.04063832 3.33382885 2 5 C1 6 1 6 -2.16015625 6.09765625 C-4.09181641 6.08025391 -4.09181641 6.08025391 -6.0625 6.0625 C-7.35285156 6.05347656 -8.64320313 6.04445313 -9.97265625 6.03515625 C-10.97167969 6.02355469 -11.97070312 6.01195312 -13 6 C-13 5.34 -13 4.68 -13 4 C-8.71 4 -4.42 4 0 4 C0 2.68 0 1.36 0 0 Z " fill="#2A4847" transform="translate(687,512)"/>
<path d="M0 0 C1.32 1.32 2.64 2.64 4 4 C3.34 5.98 2.68 7.96 2 10 C0.68 10 -0.64 10 -2 10 C-1.54177532 6.53058454 -1.10868317 3.32604951 0 0 Z " fill="#254040" transform="translate(743,604)"/>
<path d="M0 0 C3.96 0 7.92 0 12 0 C11 2 11 2 8 4 C5.73828125 4.1953125 5.73828125 4.1953125 3.3125 4.125 C2.10013672 4.09792969 2.10013672 4.09792969 0.86328125 4.0703125 C-0.05904297 4.03550781 -0.05904297 4.03550781 -1 4 C-0.67 2.68 -0.34 1.36 0 0 Z " fill="#384C4C" transform="translate(519,593)"/>
<path d="M0 0 C0.33 0 0.66 0 1 0 C1.16808419 2.10405391 1.33441948 4.20824758 1.5 6.3125 C1.5928125 7.48425781 1.685625 8.65601563 1.78125 9.86328125 C1.92364989 11.905194 2 13.9531279 2 16 C1.01 16 0.02 16 -1 16 C-1.02701408 13.89590361 -1.04640223 11.79170822 -1.0625 9.6875 C-1.07410156 8.51574219 -1.08570313 7.34398437 -1.09765625 6.13671875 C-1 3 -1 3 0 0 Z " fill="#184447" transform="translate(395,597)"/>
<path d="M0 0 C1.40783184 2.62795276 2.50772334 5.04634002 3 8 C2.67 8.66 2.34 9.32 2 10 C1.01 10 0.02 10 -1 10 C-2.38125018 7.23749964 -2.19079306 5.05268901 -2 2 C-1.34 1.34 -0.68 0.68 0 0 Z " fill="#244141" transform="translate(628,594)"/>
<path d="M0 0 C-0.33 0.99 -0.66 1.98 -1 3 C-5.62 3.33 -10.24 3.66 -15 4 C-15 3.01 -15 2.02 -15 1 C-9.9752761 0.37470103 -5.07471573 -0.13012092 0 0 Z " fill="#274846" transform="translate(377,576)"/>
<path d="M0 0 C1.49080078 0.02707031 1.49080078 0.02707031 3.01171875 0.0546875 C3.77097656 0.07789063 4.53023438 0.10109375 5.3125 0.125 C5.3125 1.115 5.3125 2.105 5.3125 3.125 C-4.09752278 3.30951025 -4.09752278 3.30951025 -8.6875 2.125 C-5.26655758 -0.15562828 -4.00562778 -0.09425007 0 0 Z " fill="#204344" transform="translate(370.6875,610.875)"/>
<path d="M0 0 C2.475 0.495 2.475 0.495 5 1 C5.33 3.31 5.66 5.62 6 8 C5.67 7.34 5.34 6.68 5 6 C4.34 6 3.68 6 3 6 C2.67 6.66 2.34 7.32 2 8 C0.74335022 5.09399739 0 3.20395416 0 0 Z " fill="#143233" transform="translate(618,576)"/>
<path d="M0 0 C0.33 0.99 0.66 1.98 1 3 C1.66 3.33 2.32 3.66 3 4 C-0.48207754 6.11411851 -0.48207754 6.11411851 -2.84375 5.59375 C-3.5553125 5.3978125 -4.266875 5.201875 -5 5 C-6.58025005 4.78807905 -8.16398461 4.60076629 -9.75 4.4375 C-10.54921875 4.35371094 -11.3484375 4.26992188 -12.171875 4.18359375 C-12.77515625 4.12300781 -13.3784375 4.06242188 -14 4 C-14 3.67 -14 3.34 -14 3 C-12.86111328 2.92652344 -12.86111328 2.92652344 -11.69921875 2.8515625 C-10.20841797 2.73941406 -10.20841797 2.73941406 -8.6875 2.625 C-7.70136719 2.55539062 -6.71523438 2.48578125 -5.69921875 2.4140625 C-2.78471567 2.16134528 -2.78471567 2.16134528 0 0 Z " fill="#0D3034" transform="translate(379,607)"/>
<path d="M0 0 C0.33 1.32 0.66 2.64 1 4 C-2.3 4 -5.6 4 -9 4 C-9 3.01 -9 2.02 -9 1 C-4.545 0.505 -4.545 0.505 0 0 Z " fill="#0A373A" transform="translate(374,592)"/>
<path d="M0 0 C1.67542976 0.28604898 3.34385343 0.61781233 5 1 C4.25 3.4375 4.25 3.4375 3 6 C0.875 6.8125 0.875 6.8125 -1 7 C-1.04254356 5.00045254 -1.04080783 2.99958364 -1 1 C-0.67 0.67 -0.34 0.34 0 0 Z " fill="#183334" transform="translate(202,558)"/>
<path d="M0 0 C1.32 0 2.64 0 4 0 C3.67 1.98 3.34 3.96 3 6 C1.68 6.33 0.36 6.66 -1 7 C-2 4 -2 4 -1.0625 1.8125 C-0.5365625 0.9153125 -0.5365625 0.9153125 0 0 Z " fill="#1F3C3C" transform="translate(645,576)"/>
<path d="M0 0 C0.77734375 1.703125 0.77734375 1.703125 1 4 C-0.87109375 6.359375 -0.87109375 6.359375 -3.4375 8.75 C-4.70400391 9.94882812 -4.70400391 9.94882812 -5.99609375 11.171875 C-6.65738281 11.77515625 -7.31867188 12.3784375 -8 13 C-8.66 12.67 -9.32 12.34 -10 12 C-8.87895467 10.68412059 -7.75303035 9.37239647 -6.625 8.0625 C-5.99851563 7.33160156 -5.37203125 6.60070312 -4.7265625 5.84765625 C-3 4 -3 4 -1 3 C-0.67 2.01 -0.34 1.02 0 0 Z " fill="#1C2F33" transform="translate(227,561)"/>
<path d="M0 0 C2.64 0.66 5.28 1.32 8 2 C8 2.33 8 2.66 8 3 C6.35 3 4.7 3 3 3 C2.34 5.64 1.68 8.28 1 11 C0.67 11 0.34 11 0 11 C0 7.37 0 3.74 0 0 Z " fill="#1A2A2C" transform="translate(136,424)"/>
<path d="M0 0 C1.32 0 2.64 0 4 0 C4.33 1.98 4.66 3.96 5 6 C4.34 6 3.68 6 3 6 C2.67 6.66 2.34 7.32 2 8 C0.74335022 5.09399739 0 3.20395416 0 0 Z " fill="#0E3233" transform="translate(758,584)"/>
<path d="M0 0 C0.66 0.99 1.32 1.98 2 3 C-0.52788007 5.79872437 -2.20411134 7.45773019 -6 8 C-6.33 7.34 -6.66 6.68 -7 6 C-4.69 4.02 -2.38 2.04 0 0 Z " fill="#1C3C3C" transform="translate(476,605)"/>
<path d="M0 0 C-2.96178773 1.67110042 -5.37071192 2.32682752 -8.75 2.625 C-9.54921875 2.69976563 -10.3484375 2.77453125 -11.171875 2.8515625 C-11.77515625 2.90054688 -12.3784375 2.94953125 -13 3 C-13 2.34 -13 1.68 -13 1 C-4.57142857 -1.42857143 -4.57142857 -1.42857143 0 0 Z " fill="#E0E2D9" transform="translate(286,534)"/>
<path d="M0 0 C0.66 0.33 1.32 0.66 2 1 C2.625 4.0625 2.625 4.0625 3 7 C1.68 7 0.36 7 -1 7 C-1.33 5.35 -1.66 3.7 -2 2 C-1.34 2 -0.68 2 0 2 C0 1.34 0 0.68 0 0 Z " fill="#153536" transform="translate(630,602)"/>
<path d="M0 0 C2.97 0.495 2.97 0.495 6 1 C5.67 1.99 5.34 2.98 5 4 C2.03 3.505 2.03 3.505 -1 3 C-0.67 2.01 -0.34 1.02 0 0 Z " fill="#183132" transform="translate(879,577)"/>
<path d="M0 0 C1.32 0 2.64 0 4 0 C4.33 1.65 4.66 3.3 5 5 C3.68 5 2.36 5 1 5 C0.67 3.35 0.34 1.7 0 0 Z " fill="#0F2E2F" transform="translate(767,609)"/>
<path d="M0 0 C1.485 0.99 1.485 0.99 3 2 C3 2.66 3 3.32 3 4 C3.99 4.33 4.98 4.66 6 5 C5.34 5 4.68 5 4 5 C3.67 5.99 3.34 6.98 3 8 C0.9375 6.25 0.9375 6.25 -1 4 C-0.75 1.75 -0.75 1.75 0 0 Z " fill="#27484A" transform="translate(375,591)"/>
<path d="M0 0 C0.66 0 1.32 0 2 0 C2.33 1.65 2.66 3.3 3 5 C0.525 6.485 0.525 6.485 -2 8 C-1.125 2.25 -1.125 2.25 0 0 Z " fill="#D8DBD8" transform="translate(236,549)"/>
<path d="M0 0 C1.21816406 0.03480469 1.21816406 0.03480469 2.4609375 0.0703125 C3.68683594 0.09738281 3.68683594 0.09738281 4.9375 0.125 C5.87722656 0.15980469 5.87722656 0.15980469 6.8359375 0.1953125 C6.8359375 0.5253125 6.8359375 0.8553125 6.8359375 1.1953125 C5.7840625 1.2778125 4.7321875 1.3603125 3.6484375 1.4453125 C-0.43453459 2.24852012 -2.1763352 3.38865959 -5.1640625 6.1953125 C-4.4726412 2.73820598 -3.94163347 0.35574309 0 0 Z " fill="#103031" transform="translate(391.1640625,372.8046875)"/>
<path d="M0 0 C1.65 0 3.3 0 5 0 C5 1.32 5 2.64 5 4 C3.35 4 1.7 4 0 4 C0 2.68 0 1.36 0 0 Z " fill="#224140" transform="translate(435,568)"/>
<path d="M0 0 C1.65 0 3.3 0 5 0 C5 1.32 5 2.64 5 4 C3.35 4 1.7 4 0 4 C0 2.68 0 1.36 0 0 Z " fill="#1E3B3C" transform="translate(426,568)"/>
<path d="M0 0 C1.98 0.66 3.96 1.32 6 2 C6 2.99 6 3.98 6 5 C4.68 5 3.36 5 2 5 C2 4.01 2 3.02 2 2 C1.34 2 0.68 2 0 2 C0 1.34 0 0.68 0 0 Z " fill="#1A343C" transform="translate(524,576)"/>
<path d="M0 0 C4.29 0 8.58 0 13 0 C13 0.33 13 0.66 13 1 C12.24074219 1.04898438 11.48148437 1.09796875 10.69921875 1.1484375 C9.70535156 1.22320313 8.71148437 1.29796875 7.6875 1.375 C6.20830078 1.47941406 6.20830078 1.47941406 4.69921875 1.5859375 C1.78471567 1.83865472 1.78471567 1.83865472 -1 4 C-0.67 2.68 -0.34 1.36 0 0 Z " fill="#DBD6C7" transform="translate(432,541)"/>
<path d="M0 0 C1.9375 0.375 1.9375 0.375 4 1 C4.33 1.66 4.66 2.32 5 3 C1.78548731 4.60725635 -1.43612536 4.05748185 -5 4 C-5 3.67 -5 3.34 -5 3 C-3.35 2.67 -1.7 2.34 0 2 C0 1.34 0 0.68 0 0 Z " fill="#0C2F30" transform="translate(522,610)"/>
<path d="M0 0 C4.29 0 8.58 0 13 0 C13 0.33 13 0.66 13 1 C12.24074219 1.06058594 11.48148437 1.12117187 10.69921875 1.18359375 C9.70535156 1.26738281 8.71148437 1.35117187 7.6875 1.4375 C6.70136719 1.51871094 5.71523438 1.59992187 4.69921875 1.68359375 C1.90624401 1.91812559 1.90624401 1.91812559 -1 3 C-0.67 2.01 -0.34 1.02 0 0 Z " fill="#DAD7C6" transform="translate(365,541)"/>
<path d="M0 0 C0.66 0.33 1.32 0.66 2 1 C-0.64 2.98 -3.28 4.96 -6 7 C-6 6.01 -6 5.02 -6 4 C-3 1.8125 -3 1.8125 0 0 Z " fill="#143435" transform="translate(755,400)"/>
<path d="M0 0 C3 1 3 1 4 3 C1.24921116 3.91692961 -0.35948913 4.10886083 -3.1875 4.0625 C-5.0746875 4.0315625 -5.0746875 4.0315625 -7 4 C-7 3.67 -7 3.34 -7 3 C-5.5459375 2.814375 -5.5459375 2.814375 -4.0625 2.625 C-2.5465625 2.315625 -2.5465625 2.315625 -1 2 C-0.67 1.34 -0.34 0.68 0 0 Z " fill="#062D30" transform="translate(878,610)"/>
<path d="M0 0 C0.99 0.33 1.98 0.66 3 1 C3 2.65 3 4.3 3 6 C1.68 5.67 0.36 5.34 -1 5 C-0.67 3.35 -0.34 1.7 0 0 Z " fill="#214242" transform="translate(638,595)"/>
<path d="M0 0 C1.32 0 2.64 0 4 0 C4.33 1.65 4.66 3.3 5 5 C4.67 4.34 4.34 3.68 4 3 C3.34 3 2.68 3 2 3 C1.67 3.66 1.34 4.32 1 5 C0.67 3.35 0.34 1.7 0 0 Z " fill="#103335" transform="translate(762,595)"/>
<path d="M0 0 C2 2 2 2 2 5 C-0.5 6.6875 -0.5 6.6875 -3 8 C-1.125 2.25 -1.125 2.25 0 0 Z " fill="#D2CEC1" transform="translate(392,390)"/>
</svg>
