<?xml version="1.0" encoding="UTF-8"?>
<svg version="1.1" xmlns="http://www.w3.org/2000/svg" viewBox="78 362 255 259" width="255" height="259">
<path d="M0 0 C32.34107582 -0.02278968 64.68214936 -0.04049782 97.02323132 -0.05106533 C100.83734629 -0.05231611 104.65146123 -0.05361042 108.46557617 -0.05493164 C109.22493001 -0.05519395 109.98428386 -0.05545626 110.76664842 -0.05572652 C123.07824169 -0.06008337 135.38983032 -0.06797099 147.70142084 -0.0771528 C160.3247939 -0.08648893 172.94816452 -0.09205552 185.57154089 -0.09408849 C193.36714149 -0.09546381 201.16272896 -0.09981484 208.95832551 -0.10791647 C214.92586162 -0.11380411 220.89338632 -0.11445907 226.86092567 -0.11310768 C229.31643124 -0.11338421 231.77193727 -0.11539195 234.22743988 -0.11920547 C237.56395311 -0.12413578 240.90040883 -0.12300075 244.23692322 -0.12025452 C245.71500526 -0.12462378 245.71500526 -0.12462378 247.22294754 -0.12908131 C248.55310783 -0.12609474 248.55310783 -0.12609474 249.91014004 -0.12304783 C250.68135203 -0.12342755 251.45256402 -0.12380727 252.24714607 -0.1241985 C254 0 254 0 255 1 C255.0973362 2.37517075 255.12555411 3.75530756 255.12584114 5.13391876 C255.12975276 6.47882928 255.12975276 6.47882928 255.13374341 7.85090971 C255.13039732 9.34547784 255.13039732 9.34547784 255.12698364 10.87023926 C255.12854363 11.91986107 255.13010362 12.96948289 255.13171089 14.05091143 C255.13572584 17.59710593 255.13252933 21.14325824 255.12939453 24.68945312 C255.13074835 27.21996587 255.13252818 29.75047843 255.13470459 32.2809906 C255.13880507 38.45815285 255.13818557 44.63529926 255.13529195 50.81246173 C255.13303814 55.830547 255.1327253 60.84862885 255.13381577 65.86671448 C255.133969 66.5795581 255.13412223 67.29240173 255.13428011 68.02684668 C255.13459982 69.47474841 255.13492403 70.92265015 255.1352527 72.37055188 C255.13810766 85.96347051 255.13482022 99.5563824 255.12945233 113.14929992 C255.12498428 124.82528535 255.12576021 136.50126084 255.13037109 148.17724609 C255.13571658 161.71986985 255.13783296 175.2624877 255.13475883 188.80511236 C255.13444026 190.24783675 255.13412589 191.69056113 255.13381577 193.13328552 C255.13366149 193.84322616 255.13350721 194.5531668 255.13334826 195.28462079 C255.13248303 200.29957631 255.13394612 205.31452809 255.13629532 210.32948303 C255.13938465 217.07300114 255.13720095 223.81649749 255.13140106 230.56001472 C255.1300727 233.04293346 255.13046885 235.52585377 255.13266373 238.0087719 C255.13537227 241.38245668 255.13199774 244.75607994 255.12698364 248.12976074 C255.12921436 249.12613949 255.13144509 250.12251824 255.13374341 251.14909029 C255.13113566 252.0456973 255.12852791 252.94230432 255.12584114 253.86608124 C255.12567879 254.64586444 255.12551644 255.42564765 255.12534916 256.22906065 C255 258 255 258 254 259 C252.64665857 259.09815577 251.28823976 259.1273884 249.93134403 259.12863445 C249.0492873 259.1318589 248.16723057 259.13508335 247.25844485 259.1384055 C246.27831201 259.1368569 245.29817917 259.1353083 244.28834534 259.13371277 C242.73947228 259.1371111 242.73947228 259.1371111 241.15930885 259.14057809 C237.6707293 259.14694995 234.18218827 259.1460867 230.69360352 259.14526367 C228.20412139 259.14825317 225.71463973 259.15165521 223.22515869 259.15544128 C217.14792665 259.16338422 211.07070999 259.16649685 204.99347419 259.16705366 C200.05596541 259.16752806 195.11845984 259.16957897 190.18095207 259.17275429 C176.19659523 259.18156524 162.21224608 259.18617297 148.22788645 259.18542381 C147.0959579 259.18536388 147.0959579 259.18536388 145.94116211 259.18530273 C145.18562669 259.18526185 144.43009128 259.18522097 143.65166085 259.18517885 C131.40222799 259.18477225 119.15282584 259.19434421 106.90340186 259.2084411 C94.33988048 259.22278592 81.7763741 259.22971233 69.21284431 259.22884732 C62.15370413 259.2285147 55.09459616 259.23129036 48.03546333 259.24202538 C41.39945488 259.25205188 34.76350303 259.25181446 28.12748718 259.24450874 C25.68530109 259.24345768 23.24311085 259.24585638 20.80093193 259.2518692 C17.48008554 259.2595188 14.15947906 259.25499134 10.83863831 259.24723816 C9.86073619 259.25238172 8.88283407 259.25752529 7.87529856 259.26282471 C6.99063408 259.25822592 6.1059696 259.25362712 5.19449711 259.24888897 C4.42724467 259.24910634 3.65999224 259.24932371 2.86948973 259.24954766 C1 259 1 259 -1 257 C-1.24954766 255.11883688 -1.24954766 255.11883688 -1.24888897 252.77706146 C-1.25348777 251.88604689 -1.25808656 250.99503232 -1.26282471 250.07701731 C-1.25768115 249.09201541 -1.25253759 248.10701352 -1.24723816 247.09216309 C-1.24965257 246.05055952 -1.25206699 245.00895595 -1.25455457 243.93578863 C-1.26021984 240.4226247 -1.25150712 236.90964032 -1.24291992 233.39648438 C-1.2439921 230.88715058 -1.24592983 228.37781702 -1.24867249 225.8684845 C-1.25302859 219.74658372 -1.24806391 213.62475033 -1.23882218 207.50285685 C-1.22845369 200.37931038 -1.22850796 193.25577567 -1.22899476 186.13222307 C-1.22949575 173.42521413 -1.22032414 160.71823033 -1.20581055 148.01123047 C-1.19172241 135.6704055 -1.18463975 123.32960266 -1.18530273 110.98876953 C-1.18534269 110.22874191 -1.18538265 109.46871429 -1.18542381 108.68565553 C-1.18546417 107.9269647 -1.18550452 107.16827386 -1.1855461 106.38659239 C-1.1862354 92.3527329 -1.180349 78.31888284 -1.17139288 64.2850264 C-1.16837234 59.31511394 -1.16731283 54.3452032 -1.16686058 49.37528992 C-1.16610847 42.69084776 -1.15977823 36.00643223 -1.14969444 29.32199669 C-1.14676331 26.86207408 -1.14554531 24.40214879 -1.14612198 21.9422245 C-1.14660954 18.59740339 -1.14098795 15.2526488 -1.13371277 11.90783691 C-1.13526137 10.92283502 -1.13680997 9.93783313 -1.1384055 8.92298269 C-1.13518106 8.03196812 -1.13195661 7.14095355 -1.12863445 6.22293854 C-1.12793003 5.45015265 -1.1272256 4.67736676 -1.12649983 3.88116312 C-1 2 -1 2 0 0 Z " fill="#1C4040" transform="translate(78,362)"/>
<path d="M0 0 C0.96678077 25.16972594 1.11281421 50.33829706 1.12338257 75.52325058 C1.12499296 78.05144391 1.12854975 80.57962805 1.13256836 83.1078186 C1.13849813 87.16908693 1.13859582 91.23031777 1.13431931 95.29158783 C1.13333343 96.8004123 1.13388464 98.30923875 1.13615799 99.81806183 C1.14782651 109.25968446 0.81025777 118.5914808 0 128 C-1.56234375 128.32871094 -1.56234375 128.32871094 -3.15625 128.6640625 C-20.38106854 132.41431721 -34.35108813 138.15139662 -49 148 C-50.485 148.99 -50.485 148.99 -52 150 C-51.83299996 143.48699833 -48.0882077 139.67678235 -44 135 C-43.39929688 134.30390625 -42.79859375 133.6078125 -42.1796875 132.890625 C-35.52674258 125.70878487 -26.7309323 119.82454981 -17 118 C-15.68 118 -14.36 118 -13 118 C-13 85 -13 52 -13 18 C-26.73909167 22.9231223 -26.73909167 22.9231223 -39 30 C-39.62003906 30.43699219 -40.24007812 30.87398438 -40.87890625 31.32421875 C-56.55713983 43.56516622 -62.26519385 63.63389465 -67 82 C-67.33 82 -67.66 82 -68 82 C-68.17582619 77.55681433 -68.30133177 73.11558021 -68.38452148 68.66992188 C-68.41927016 67.16467951 -68.46668932 65.65966491 -68.52807617 64.15527344 C-69.08605079 50.10744186 -65.97797731 40.52864545 -56.625 29.625 C-55.10651241 28.06049763 -53.56536011 26.51760336 -52 25 C-51.30132812 24.30390625 -50.60265625 23.6078125 -49.8828125 22.890625 C-37.74808781 11.42264342 -17.2359087 0 0 0 Z " fill="#F1EDE0" transform="translate(286,407)"/>
<path d="M0 0 C1.34760896 0.3180897 2.69513159 0.63654515 4.0426178 0.95515442 C4.79302873 1.13245496 5.54343966 1.3097555 6.31659031 1.49242878 C26.57367619 6.3403079 47.95342809 16.34545237 59.3671875 34.64453125 C63.5690091 41.75249873 66.15723944 47.32365902 66.09765625 55.73046875 C66.0962413 56.48088943 66.09482635 57.23131012 66.09336853 58.00447083 C66.0877756 60.3988546 66.07522444 62.79314453 66.0625 65.1875 C66.05748408 66.81184761 66.05292134 68.43619668 66.04882812 70.06054688 C66.03780848 74.04040069 66.02054873 78.02018444 66 82 C65.34 81.67 64.68 81.34 64 81 C63.796875 79.0234375 63.796875 79.0234375 63.75 76.375 C62.55407692 60.21954785 52.16661708 42.69379657 40.65234375 31.7734375 C31.70780936 24.20389492 21.96964899 20.98896327 11 17 C11 50.33 11 83.66 11 118 C13.64 118.33 16.28 118.66 19 119 C25.63346395 121.07628486 31.42798221 124.93089343 37 129 C37.63035156 129.45117188 38.26070312 129.90234375 38.91015625 130.3671875 C45.20111966 135.26169529 49.78302876 142.06138531 51 150 C47.96325743 148.61030425 45.28642143 146.86466535 42.53588867 144.97949219 C36.82523756 141.11252628 31.06520779 137.88480592 24.6875 135.25 C24.07430908 134.99323486 23.46111816 134.73646973 22.8293457 134.47192383 C17.71719287 132.44877826 12.46798405 130.92929768 7.19458008 129.39355469 C6.40580727 129.16276215 5.61703445 128.9319696 4.80435944 128.69418335 C2.86989916 128.12833919 0.93499381 127.56401699 -1 127 C-1.02333588 113.68965975 -1.04102207 100.37932449 -1.05181217 87.06896782 C-1.05699506 80.88614038 -1.06400752 74.7033271 -1.07543945 68.52050781 C-1.08643378 62.53580718 -1.09231127 56.55112003 -1.09487724 50.56641006 C-1.09670207 48.30148227 -1.10026413 46.03655508 -1.10573006 43.77163315 C-1.13956053 29.15020019 -0.80002644 14.60026998 0 0 Z " fill="#EFEBDF" transform="translate(125,407)"/>
<path d="M0 0 C2.97 0 5.94 0 9 0 C9 35.97 9 71.94 9 109 C11.97 109.33 14.94 109.66 18 110 C40.27724375 114.2269642 62.74595839 126.02162148 76 145 C78.479839 149.16516647 80.39229295 153.13834363 81 158 C80.34 158 79.68 158 79 158 C77.82665037 156.55888596 76.71230731 155.06959052 75.625 153.5625 C62.03595204 136.23401977 38.1703791 125.99441115 17 122 C11.39 121.34 5.78 120.68 0 120 C0 80.4 0 40.8 0 0 Z " fill="#EAE7DC" transform="translate(107,433)"/>
<path d="M0 0 C2.31 0 4.62 0 7 0 C7 39.6 7 79.2 7 120 C-0.425 120.99 -0.425 120.99 -8 122 C-30.57589704 126.11211109 -50.14949711 136.81776759 -66.51171875 152.75 C-68.65850819 154.69120992 -70.35077685 155.90804854 -73 157 C-71.60455181 145.20676103 -61.26429693 135.77538118 -52.32763672 128.67041016 C-37.66203653 117.63927453 -19.68182956 108.8099549 -1 109 C-1.00092179 108.4443187 -1.00184359 107.88863741 -1.00279331 107.31611729 C-1.02484982 93.8132345 -1.04134841 80.31035485 -1.05181217 66.80745792 C-1.0570417 60.27763767 -1.06414061 53.74783037 -1.07543945 47.21801758 C-1.08626585 40.92218841 -1.09227631 34.62637174 -1.09487724 28.33053398 C-1.09673194 25.92265056 -1.1003534 23.51476786 -1.10573006 21.10688972 C-1.1129372 17.74710714 -1.11399108 14.3873769 -1.11352539 11.02758789 C-1.11712067 10.02130341 -1.12071594 9.01501892 -1.12442017 7.97824097 C-1.1230455 7.06813766 -1.12167084 6.15803436 -1.12025452 5.22035217 C-1.12117631 4.42484483 -1.1220981 3.62933748 -1.12304783 2.80972385 C-1 1 -1 1 0 0 Z " fill="#EAE7DC" transform="translate(295,433)"/>
<path d="M0 0 C3.59823032 3.3500765 6.68483178 6.25312552 7.26817894 11.33733559 C7.37025344 14.3622346 7.37065091 17.3731454 7.34057617 20.3996582 C7.34101425 21.55130966 7.34145233 22.70296112 7.34190369 23.88951111 C7.33981485 27.69344069 7.31647843 31.49692872 7.29296875 35.30078125 C7.28737316 37.93922179 7.28310289 40.57766545 7.28010559 43.21611023 C7.27079031 49.44922994 7.24618367 55.68219134 7.21605712 61.91524142 C7.1824969 69.01314432 7.16602305 76.11105488 7.15097082 83.2090174 C7.11963356 97.80609518 7.06627718 112.40304008 7 127 C2.71 127 -1.58 127 -6 127 C-6.11595605 111.90062865 -6.20508069 96.80130914 -6.25906086 81.70159245 C-6.28479587 74.68982304 -6.31985537 67.6783361 -6.37719727 60.66674805 C-6.43253039 53.89753489 -6.46143981 47.12861511 -6.47438622 40.35918999 C-6.48360997 37.77924423 -6.50162187 35.19931414 -6.52865028 32.61949348 C-6.56505632 28.99996662 -6.56994021 25.381644 -6.56762695 21.76196289 C-6.58560333 20.70028397 -6.60357971 19.63860504 -6.62210083 18.54475403 C-6.57351339 11.49818712 -5.17429039 5.17429039 0 0 Z " fill="#F6F1E5" transform="translate(204,381)"/>
</svg>
